# Blender v2.78 (sub 0) OBJ File: 'bookshelf.blend'
# www.blender.org
mtllib book.mtl
o book.042_book.040
v 0.023327 0.156143 -0.009684
v -0.016049 0.156143 -0.009684
v 0.023327 0.120664 0.001084
v -0.016049 0.120664 0.001084
v 0.023327 0.156338 -0.009042
v -0.016049 0.156338 -0.009042
v 0.023327 0.120859 0.001727
v -0.016049 0.120859 0.001727
v 0.023327 0.158041 -0.003431
v -0.016049 0.158041 -0.003431
v 0.023327 0.122562 0.007338
v -0.016049 0.122562 0.007338
v 0.023327 0.157846 -0.004073
v -0.016049 0.157846 -0.004073
v 0.023327 0.122367 0.006695
v -0.016049 0.122367 0.006695
v 0.023760 0.156294 -0.009186
v 0.023760 0.156338 -0.009042
v 0.023760 0.120815 0.001582
v 0.023760 0.120859 0.001727
v 0.024193 0.156338 -0.009042
v 0.024193 0.156143 -0.009684
v 0.024193 0.120859 0.001727
v 0.024193 0.120664 0.001084
v 0.023760 0.157890 -0.003929
v 0.023760 0.157846 -0.004073
v 0.023760 0.122410 0.006839
v 0.023760 0.122367 0.006695
v 0.024193 0.157846 -0.004073
v 0.024193 0.158041 -0.003431
v 0.024193 0.122367 0.006695
v 0.024193 0.122562 0.007338
v 0.024735 0.156338 -0.009042
v 0.024735 0.120859 0.001727
v 0.024735 0.157846 -0.004073
v 0.024735 0.122367 0.006695
v 0.024868 0.157092 -0.006557
v 0.024326 0.157092 -0.006557
v 0.024868 0.121613 0.004211
v 0.024326 0.121613 0.004211
v 0.023327 0.155788 -0.009577
v -0.016049 0.155788 -0.009577
v 0.023327 0.121018 0.000976
v -0.016049 0.121018 0.000976
v 0.023327 0.155983 -0.008934
v -0.016049 0.155983 -0.008934
v 0.023327 0.121213 0.001619
v -0.016049 0.121213 0.001619
v 0.023327 0.157686 -0.003323
v -0.016049 0.157686 -0.003323
v 0.023327 0.122916 0.007230
v -0.016049 0.122916 0.007230
v 0.023327 0.157491 -0.003966
v -0.016049 0.157491 -0.003966
v 0.023327 0.122721 0.006587
v -0.016049 0.122721 0.006587
v 0.023760 0.155939 -0.009078
v 0.023760 0.155983 -0.008934
v 0.023760 0.121170 0.001475
v 0.023760 0.121213 0.001619
v 0.024193 0.155983 -0.008934
v 0.024193 0.155788 -0.009577
v 0.024193 0.121213 0.001619
v 0.024193 0.121018 0.000976
v 0.023760 0.157535 -0.003821
v 0.023760 0.157491 -0.003966
v 0.023760 0.122765 0.006731
v 0.023760 0.122721 0.006587
v 0.024193 0.157491 -0.003966
v 0.024193 0.157686 -0.003323
v 0.024193 0.122721 0.006587
v 0.024193 0.122916 0.007230
v 0.024735 0.155983 -0.008934
v 0.024735 0.121213 0.001619
v 0.024735 0.157491 -0.003966
v 0.024735 0.122721 0.006587
v 0.024868 0.156737 -0.006450
v 0.024326 0.156737 -0.006450
v 0.024868 0.121967 0.004103
v 0.024326 0.121967 0.004103
v -0.015655 0.158041 -0.003431
v -0.015655 0.122562 0.007338
v -0.015655 0.157846 -0.004073
v -0.015655 0.122367 0.006695
v -0.015655 0.156143 -0.009684
v -0.015655 0.120664 0.001084
v -0.015655 0.156338 -0.009042
v -0.015655 0.120859 0.001727
v -0.015655 0.157686 -0.003323
v -0.015655 0.122916 0.007230
v -0.015655 0.157491 -0.003966
v -0.015655 0.122721 0.006587
v -0.015655 0.155788 -0.009577
v -0.015655 0.121018 0.000976
v -0.015655 0.155983 -0.008934
v -0.015655 0.121213 0.001619
vt 0.7864 0.1407
vt 0.7860 0.1407
vt 0.7860 0.1401
vt 0.7864 0.1401
vt 0.1630 0.7645
vt 0.1626 0.7645
vt 0.1626 0.7639
vt 0.1630 0.7639
vt 0.2622 0.9484
vt 0.2622 0.9488
vt 0.2614 0.9488
vt 0.2614 0.9484
vt 0.9268 0.8888
vt 0.9268 0.8893
vt 0.9260 0.8893
vt 0.9260 0.8888
vt 0.9268 0.8322
vt 0.9260 0.8322
vt 0.1630 0.8210
vt 0.1626 0.8210
vt 0.7860 0.0836
vt 0.7864 0.0836
vt 0.1218 0.7645
vt 0.1218 0.7639
vt 0.1213 0.7645
vt 0.1213 0.7639
vt 0.2622 0.9913
vt 0.2622 0.9917
vt 0.2614 0.9917
vt 0.2614 0.9913
vt 0.7452 0.1407
vt 0.7448 0.1407
vt 0.7448 0.1401
vt 0.7452 0.1401
vt 0.1218 0.8210
vt 0.1213 0.8210
vt 0.7448 0.0835
vt 0.7452 0.0835
vt 0.9265 0.8205
vt 0.9257 0.8205
vt 0.9257 0.7639
vt 0.9265 0.7639
vt 0.9257 0.7634
vt 0.9265 0.7634
vt 0.2928 0.9484
vt 0.2928 0.9488
vt 0.2922 0.9488
vt 0.2922 0.9484
vt 0.9260 0.8316
vt 0.9262 0.8316
vt 0.7860 0.0829
vt 0.7864 0.0829
vt 0.7452 0.0829
vt 0.7448 0.0829
vt 0.9259 0.8211
vt 0.9257 0.8211
vt 0.2928 0.9913
vt 0.2922 0.9913
vt 0.2928 0.9917
vt 0.2922 0.9917
vt 0.2776 0.9913
vt 0.2776 0.9917
vt 0.2770 0.9917
vt 0.2770 0.9913
vt 0.2776 0.9484
vt 0.2776 0.9488
vt 0.2770 0.9488
vt 0.2770 0.9484
vt 0.9260 0.8309
vt 0.9268 0.8309
vt 0.7860 0.0823
vt 0.7864 0.0823
vt 0.7452 0.0823
vt 0.7448 0.0823
vt 0.9257 0.8218
vt 0.9265 0.8218
vt 0.9260 0.8301
vt 0.7389 0.9767
vt 0.7389 0.9771
vt 0.7382 0.9771
vt 0.7382 0.9767
vt 0.9257 0.8225
vt 0.7389 0.9341
vt 0.7382 0.9341
vt 0.7389 0.9337
vt 0.7382 0.9337
vt 0.7420 0.9337
vt 0.7420 0.9341
vt 0.7420 0.9767
vt 0.7420 0.9771
vt 0.5130 0.9378
vt 0.5130 0.9382
vt 0.5100 0.9382
vt 0.5100 0.9378
vt 0.5130 0.9807
vt 0.5100 0.9807
vt 0.5130 0.9812
vt 0.5100 0.9812
vt 0.9228 0.8227
vt 0.9228 0.8219
vt 0.9231 0.8307
vt 0.9231 0.8300
vt 0.9202 0.8309
vt 0.9202 0.8301
vt 0.5070 0.9382
vt 0.5070 0.9378
vt 0.5070 0.9807
vt 0.5070 0.9812
vt 0.9199 0.8225
vt 0.9199 0.8218
vt 0.7450 0.9767
vt 0.7450 0.9771
vt 0.7450 0.9337
vt 0.7450 0.9341
vt 0.9195 0.8309
vt 0.7458 0.9337
vt 0.7458 0.9341
vt 0.7458 0.9767
vt 0.7458 0.9771
vt 0.9192 0.8218
vt 0.9202 0.8316
vt 0.9200 0.8316
vt 0.1885 0.7522
vt 0.1889 0.7522
vt 0.1889 0.7529
vt 0.1885 0.7529
vt 0.2297 0.7522
vt 0.2297 0.7528
vt 0.2301 0.7522
vt 0.2301 0.7528
vt 0.9197 0.8211
vt 0.9199 0.8211
vt 0.9202 0.8322
vt 0.9195 0.8322
vt 0.2362 0.9934
vt 0.2362 0.9930
vt 0.2368 0.9930
vt 0.2368 0.9934
vt 0.2362 0.9505
vt 0.2368 0.9505
vt 0.2362 0.9500
vt 0.2368 0.9500
vt 0.2846 0.9488
vt 0.2846 0.9484
vt 0.2852 0.9484
vt 0.2852 0.9488
vt 0.2846 0.9913
vt 0.2852 0.9913
vt 0.2846 0.9917
vt 0.2852 0.9917
vt 0.1889 0.7535
vt 0.1885 0.7535
vt 0.2297 0.7535
vt 0.2301 0.7535
vt 0.9192 0.8205
vt 0.9199 0.8205
vt 0.0035 0.7635
vt 0.0039 0.7635
vt 0.0039 0.8201
vt 0.0035 0.8201
vt 0.0035 0.7630
vt 0.0039 0.7630
vt 0.3058 0.9917
vt 0.3058 0.9913
vt 0.3066 0.9913
vt 0.3066 0.9917
vt 0.9202 0.8888
vt 0.9202 0.8893
vt 0.9195 0.8893
vt 0.9195 0.8888
vt 0.1885 0.8101
vt 0.1889 0.8101
vt 0.1889 0.8106
vt 0.1885 0.8106
vt 0.2297 0.8100
vt 0.2301 0.8100
vt 0.0447 0.7636
vt 0.0447 0.8201
vt 0.0452 0.7636
vt 0.0452 0.8201
vt 0.0447 0.7630
vt 0.0452 0.7630
vt 0.3058 0.9488
vt 0.3058 0.9483
vt 0.3066 0.9483
vt 0.3066 0.9488
vt 0.2301 0.8106
vt 0.2297 0.8106
vt 0.9199 0.7639
vt 0.9192 0.7639
vt 0.9192 0.7634
vt 0.9199 0.7634
vn -0.5774 0.7201 0.3848
vn -0.7071 0.2054 0.6766
vn 0.0000 0.2904 0.9569
vn 0.0000 0.8820 0.4713
vn 0.0000 0.4713 -0.8820
vn 0.0000 -0.2904 -0.9569
vn -0.7071 -0.2054 -0.6766
vn -0.5773 0.3848 -0.7201
vn 0.3322 0.3903 -0.8587
vn 0.4246 -0.2629 -0.8663
vn 0.0000 -0.8820 -0.4713
vn -0.5774 -0.7201 -0.3848
vn -0.5773 -0.3848 0.7201
vn 0.0000 -0.4713 0.8820
vn 0.3322 -0.8017 -0.4969
vn 0.0000 0.7750 -0.6319
vn 0.0000 -0.9955 -0.0945
vn 0.0075 -0.2904 -0.9569
vn 0.0062 -0.7823 -0.6229
vn 0.0062 0.3041 -0.9526
vn 0.0076 -0.2904 -0.9569
vn -0.3024 0.9522 0.0436
vn -0.6888 0.2105 0.6937
vn -0.3024 -0.7673 0.5655
vn 0.7148 0.5367 -0.4482
vn 0.9342 -0.1036 -0.3414
vn 0.7148 -0.6953 -0.0743
vn 0.7182 0.6658 -0.2021
vn 1.0000 0.0000 -0.0000
vn 0.7183 -0.6658 0.2021
vn -1.0000 0.0000 0.0000
vn -0.6952 0.6878 -0.2088
vn -0.6952 -0.6878 0.2088
vn -0.3024 0.7673 -0.5655
vn 0.7148 0.6953 0.0743
vn -0.6888 -0.2105 -0.6937
vn -0.3024 -0.9522 -0.0436
vn 0.7148 -0.5367 0.4482
vn 0.9342 0.1036 0.3414
vn 0.0062 0.7823 0.6229
vn 0.0076 0.2904 0.9569
vn 0.0062 -0.3041 0.9526
vn 0.0000 0.9955 0.0945
vn 0.0000 -0.7750 0.6319
vn 0.3322 0.8017 0.4969
vn 0.4246 0.2629 0.8663
vn 0.3322 -0.3903 0.8587
vn -0.5773 0.7201 0.3848
vn -0.5774 0.3848 -0.7201
vn -0.5774 -0.3848 0.7201
usemtl Book2
s 1
f 6/1/1 46/2/2 95/3/3 87/4/4
f 85/5/5 93/6/6 42/7/7 2/8/8
f 2/9/8 42/10/7 46/11/2 6/12/1
f 85/13/5 2/14/8 6/15/1 87/16/4
f 1/17/9 85/13/5 87/16/4 5/18/4
f 1/19/9 41/20/10 93/6/6 85/5/5
f 87/4/4 95/3/3 45/21/3 5/22/4
f 93/6/6 94/23/6 44/24/7 42/7/7
f 94/23/6 86/25/11 4/26/12 44/24/7
f 44/27/7 4/28/12 8/29/13 48/30/2
f 48/31/2 8/32/13 88/33/14 96/34/3
f 42/10/7 44/27/7 48/30/2 46/11/2
f 41/20/10 43/35/10 94/23/6 93/6/6
f 46/2/2 48/31/2 96/34/3 95/3/3
f 43/35/10 3/36/15 86/25/11 94/23/6
f 96/34/3 88/33/14 7/37/14 47/38/3
f 95/3/3 96/34/3 47/38/3 45/21/3
f 3/39/15 7/40/14 88/41/14 86/42/11
f 86/42/11 88/41/14 8/43/13 4/44/12
f 17/45/16 57/46/6 41/47/10 1/48/9
f 18/49/4 17/50/16 1/17/9 5/18/4
f 5/22/4 45/21/3 58/51/3 18/52/4
f 45/21/3 47/38/3 60/53/3 58/51/3
f 47/38/3 7/37/14 20/54/14 60/53/3
f 7/40/14 3/39/15 19/55/17 20/56/14
f 57/46/6 59/57/6 43/58/10 41/47/10
f 59/57/6 19/59/17 3/60/15 43/58/10
f 64/61/18 24/62/19 19/63/17 59/64/6
f 22/65/20 62/66/21 57/67/6 17/68/16
f 62/66/21 64/61/18 59/64/6 57/67/6
f 21/69/22 22/70/20 17/50/16 18/49/4
f 18/52/4 58/51/3 61/71/23 21/72/22
f 58/51/3 60/53/3 63/73/23 61/71/23
f 60/53/3 20/54/14 23/74/24 63/73/23
f 23/75/24 20/56/14 19/55/17 24/76/19
f 33/77/25 22/70/20 21/69/22
f 74/78/26 34/79/27 24/80/19 64/81/18
f 34/82/27 23/75/24 24/76/19
f 73/83/26 74/78/26 64/81/18 62/84/21
f 33/85/25 73/83/26 62/84/21 22/86/20
f 37/87/28 77/88/29 73/83/26 33/85/25
f 77/88/29 79/89/29 74/78/26 73/83/26
f 79/89/29 39/90/30 34/79/27 74/78/26
f 21/91/22 61/92/23 78/93/31 38/94/32
f 61/92/23 63/95/23 80/96/31 78/93/31
f 63/95/23 23/97/24 40/98/33 80/96/31
f 23/75/24 34/82/27 39/99/30 40/100/33
f 38/101/32 37/102/28 33/77/25 21/69/22
f 38/101/32 29/103/34 35/104/35 37/102/28
f 38/94/32 78/93/31 69/105/36 29/106/34
f 78/93/31 80/96/31 71/107/36 69/105/36
f 80/96/31 40/98/33 31/108/37 71/107/36
f 40/100/33 39/99/30 36/109/38 31/110/37
f 76/111/39 36/112/38 39/90/30 79/89/29
f 35/113/35 75/114/39 77/88/29 37/87/28
f 75/114/39 76/111/39 79/89/29 77/88/29
f 30/115/40 35/104/35 29/103/34
f 30/116/40 70/117/41 75/114/39 35/113/35
f 70/117/41 72/118/41 76/111/39 75/114/39
f 72/118/41 32/119/42 36/112/38 76/111/39
f 31/110/37 36/109/38 32/120/42
f 26/121/5 25/122/43 30/115/40 29/103/34
f 29/123/34 69/124/36 66/125/6 26/126/5
f 69/124/36 71/127/36 68/128/6 66/125/6
f 71/127/36 31/129/37 28/130/11 68/128/6
f 31/110/37 32/120/42 27/131/44 28/132/11
f 13/133/5 9/134/45 25/122/43 26/121/5
f 25/135/43 65/136/3 70/137/41 30/138/40
f 65/136/3 67/139/3 72/140/41 70/137/41
f 67/139/3 27/141/44 32/142/42 72/140/41
f 51/143/46 11/144/47 27/145/44 67/146/3
f 49/147/46 51/143/46 67/146/3 65/148/3
f 9/149/45 49/147/46 65/148/3 25/150/43
f 26/126/5 66/125/6 53/151/6 13/152/5
f 66/125/6 68/128/6 55/153/6 53/151/6
f 68/128/6 28/130/11 15/154/11 55/153/6
f 28/132/11 27/131/44 11/155/47 15/156/11
f 81/157/4 89/158/3 49/159/46 9/160/45
f 10/161/48 50/162/2 89/158/3 81/157/4
f 14/163/49 54/164/7 50/165/2 10/166/48
f 83/167/5 14/168/49 10/169/48 81/170/4
f 83/171/5 91/172/6 54/173/7 14/174/49
f 13/152/5 53/151/6 91/172/6 83/171/5
f 53/151/6 55/153/6 92/175/6 91/172/6
f 55/153/6 15/154/11 84/176/11 92/175/6
f 13/133/5 83/167/5 81/170/4 9/134/45
f 89/158/3 90/177/3 51/178/46 49/159/46
f 90/177/3 82/179/14 11/180/47 51/178/46
f 52/181/2 12/182/50 82/179/14 90/177/3
f 56/183/7 16/184/12 12/185/50 52/186/2
f 92/175/6 84/176/11 16/187/12 56/188/7
f 50/162/2 52/181/2 90/177/3 89/158/3
f 54/164/7 56/183/7 52/186/2 50/165/2
f 91/172/6 92/175/6 56/188/7 54/173/7
f 84/189/11 82/190/14 12/191/50 16/192/12
f 15/156/11 11/155/47 82/190/14 84/189/11
