# Blender v2.78 (sub 0) OBJ File: 'Cloud_2.blend'
# www.blender.org
mtllib cloud2.mtl
o Cloud_1_Icosphere.044
v -0.462055 -0.365932 0.423100
v -1.072897 -0.544748 -0.605667
v -0.462055 -0.365932 -0.391719
v -0.909072 0.164678 0.787772
v -1.160881 0.802649 0.116003
v -0.884744 -0.841369 0.116003
v -1.025617 -0.425274 0.707169
v -0.363605 -0.426778 0.015691
v -1.681716 -0.539622 0.015691
v -0.567309 -0.019360 0.642637
v -1.475472 0.260399 0.633316
v -1.825371 0.191145 -0.081672
v -0.567309 -0.019360 -0.611256
v -1.272797 -0.060889 -0.753677
v -0.489502 0.388058 -0.371781
v -0.608700 0.632481 0.009647
v -0.972728 0.506027 -0.605668
v 0.336933 -0.331219 -0.012957
v 0.916327 -0.168688 -0.785038
v 1.180942 0.259473 0.776009
v 0.469309 0.361922 0.394453
v 0.469309 0.361922 -0.420367
v 0.891998 0.837359 0.087355
v 1.027263 -0.390563 0.678522
v 1.168136 -0.806659 -0.113269
v 0.767436 -0.726780 0.177856
v 0.496756 -0.392069 0.374515
v 0.496756 -0.392069 -0.400429
v 1.832625 -0.195155 0.084405
v 0.574564 0.015350 0.613989
v 0.574564 0.015350 -0.639903
v 1.482727 -0.264410 -0.630582
v 0.370859 0.422768 -0.012957
v 1.688970 0.535612 -0.012957
v 1.080151 0.540737 -0.634315
v -0.235058 -0.671576 -0.724008
v 0.849921 0.552950 0.272290
v 0.088652 1.023436 -0.272290
v -0.088288 -0.965116 0.272290
v -0.003436 -0.494633 0.892290
v 0.847683 -0.494630 0.279175
v 0.419090 -0.928489 0.000000
v -0.849556 -0.494631 0.272290
v -0.704800 -0.702242 -0.246228
v 0.527589 -0.494632 -0.719748
v 1.044071 0.082749 -0.000000
v 0.587968 0.029160 0.809017
v -0.322398 -0.024430 0.992798
v -0.587603 0.029159 -0.809017
v -1.043707 -0.024430 0.000000
v 0.322763 0.082749 -0.992798
v -0.527225 0.552951 0.719748
v -0.847319 0.552950 -0.279175
v 0.003800 0.552953 -0.892290
v 0.235423 0.729895 0.724007
v 0.705165 0.760561 -0.246228
v -0.418725 0.986808 -0.000000
vn 0.6312 -0.7302 0.2616
vn -0.3062 -0.9059 -0.2925
vn -0.6383 -0.4539 -0.6217
vn 0.4049 -0.3984 -0.8230
vn -0.2744 -0.0768 0.9586
vn 0.3400 0.7423 0.5775
vn 0.2220 0.9208 -0.3206
vn 0.3968 0.8242 -0.4041
vn -0.5354 0.7229 -0.4367
vn -0.6941 0.6652 0.2752
vn -0.0711 0.7098 0.7008
vn 0.4765 0.3761 -0.7947
vn -0.5812 0.4793 -0.6576
vn 0.5636 0.5936 0.5744
vn 0.1868 0.1544 -0.9702
vn 0.2053 -0.2077 -0.9564
vn -0.7922 -0.2310 -0.5648
vn -0.8878 -0.1152 0.4456
vn -0.6488 -0.3531 0.6740
vn 0.2972 -0.1866 0.9364
vn 0.4482 -0.3772 0.8104
vn 0.3900 -0.8115 -0.4352
vn -0.3631 -0.8005 0.4769
vn 0.5716 -0.7801 -0.2546
vn 0.3735 -0.7143 0.5918
vn -0.5212 -0.3563 -0.7755
vn -0.2219 -0.0931 0.9706
vn 0.3604 0.7835 0.5063
vn -0.2683 0.6796 0.6828
vn -0.5716 0.7801 -0.2546
vn 0.3062 0.9059 -0.2925
vn -0.3900 0.8115 -0.4352
vn -0.6312 0.7302 0.2616
vn 0.8878 0.1152 -0.4456
vn 0.6746 0.3342 -0.6582
vn -0.2570 0.2573 -0.9315
vn -0.4049 0.3984 -0.8230
vn -0.3853 0.4075 0.8280
vn 0.7793 0.2308 0.5826
vn 0.2820 0.1366 -0.9496
vn -0.4583 -0.3837 0.8017
vn 0.6133 -0.2570 0.7469
vn 0.0711 -0.7098 -0.7008
vn -0.1879 -0.7464 -0.6384
vn -0.3988 -0.8622 -0.3124
vn -0.6347 -0.7595 -0.1425
vn -0.7081 -0.6814 0.1851
vn -0.3661 -0.6734 0.6422
vn 0.6941 -0.6652 -0.2752
vn 0.1796 -0.8573 0.4825
vn 0.5189 -0.7152 0.4682
vn -0.1933 -0.9485 -0.2510
vn -0.0764 -0.9594 -0.2714
vn -0.6401 -0.4015 -0.6551
vn 0.8712 -0.0608 0.4871
vn -0.1818 -0.2080 -0.9611
vn 0.8090 0.0090 -0.5878
vn 0.3356 0.7277 -0.5982
vn -0.3439 0.7701 -0.5373
vn -0.3933 0.7398 -0.5459
vn -0.7639 0.5971 0.2448
vn 0.0764 0.9594 0.2714
vn -0.2004 0.8521 0.4834
vn 0.3759 0.9024 0.2105
vn 0.4231 0.8757 0.2325
vn 0.9031 0.4212 -0.0835
vn 0.7947 0.1876 -0.5773
vn 0.5054 0.4941 -0.7074
vn -0.2014 0.0722 -0.9768
vn -0.5162 0.4689 -0.7166
vn -0.8614 0.4264 0.2760
vn -0.0972 0.3971 0.9126
vn 0.6154 0.3926 0.6835
vn 0.8668 0.0721 0.4934
vn 0.0972 -0.3971 -0.9126
vn -0.8712 0.0608 -0.4871
vn -0.8383 -0.2417 -0.4886
vn -0.9031 -0.4212 -0.0835
vn -0.8090 -0.0090 0.5878
vn -0.8090 0.0063 0.5878
vn -0.5128 -0.4974 0.6998
vn 0.1818 0.2080 0.9611
vn 0.2014 -0.0722 0.9768
vn 0.5162 -0.4689 0.7166
vn 0.8614 -0.4264 -0.2760
vn 0.2004 -0.8521 -0.4834
vn -0.5161 -0.8351 0.1903
vn -0.4272 -0.6912 0.5829
vn 0.7639 -0.5971 -0.2448
vn 0.3439 -0.7701 0.5373
vn 0.3933 -0.7398 0.5459
usemtl Material
s 1
f 1//1 6//1 8//1
f 6//2 9//2 2//2
f 2//3 9//3 14//3
f 3//4 2//4 13//4
f 7//5 4//5 11//5
f 4//6 16//6 5//6
f 16//7 17//7 5//7
f 16//8 15//8 17//8
f 17//9 12//9 5//9
f 12//10 11//10 5//10
f 11//11 4//11 5//11
f 13//12 17//12 15//12
f 14//13 12//13 17//13
f 10//14 16//14 4//14
f 13//15 14//15 17//15
f 13//16 2//16 14//16
f 14//17 9//17 12//17
f 12//18 9//18 11//18
f 9//19 7//19 11//19
f 4//20 7//20 10//20
f 7//21 1//21 10//21
f 6//22 2//22 3//22
f 6//23 7//23 9//23
f 8//24 6//24 3//24
f 6//25 1//25 7//25
f 19//26 28//26 31//26
f 24//27 20//27 30//27
f 20//28 34//28 23//28
f 21//29 20//29 23//29
f 22//30 33//30 23//30
f 34//31 35//31 23//31
f 35//32 22//32 23//32
f 33//33 21//33 23//33
f 29//34 32//34 34//34
f 32//35 35//35 34//35
f 19//36 31//36 35//36
f 31//37 22//37 35//37
f 30//38 20//38 21//38
f 20//39 29//39 34//39
f 32//40 19//40 35//40
f 27//41 24//41 30//41
f 24//42 29//42 20//42
f 25//43 19//43 32//43
f 25//44 28//44 19//44
f 25//45 26//45 28//45
f 26//46 18//46 28//46
f 26//47 27//47 18//47
f 26//48 24//48 27//48
f 29//49 25//49 32//49
f 26//50 25//50 24//50
f 25//51 29//51 24//51
f 39//52 44//52 36//52
f 39//53 36//53 42//53
f 36//54 44//54 49//54
f 41//55 46//55 47//55
f 36//56 49//56 51//56
f 45//57 51//57 46//57
f 56//58 54//58 38//58
f 38//59 54//59 57//59
f 54//60 53//60 57//60
f 53//61 52//61 57//61
f 57//62 55//62 38//62
f 57//63 52//63 55//63
f 55//64 56//64 38//64
f 55//65 37//65 56//65
f 46//66 56//66 37//66
f 46//67 51//67 56//67
f 51//68 54//68 56//68
f 51//69 49//69 54//69
f 49//70 53//70 54//70
f 50//71 52//71 53//71
f 48//72 55//72 52//72
f 47//73 37//73 55//73
f 47//74 46//74 37//74
f 45//75 36//75 51//75
f 49//76 50//76 53//76
f 49//77 44//77 50//77
f 44//78 43//78 50//78
f 50//79 48//79 52//79
f 50//80 43//80 48//80
f 43//81 40//81 48//81
f 48//82 47//82 55//82
f 48//83 40//83 47//83
f 40//84 41//84 47//84
f 41//85 45//85 46//85
f 42//86 36//86 45//86
f 44//87 39//87 43//87
f 39//88 40//88 43//88
f 41//89 42//89 45//89
f 39//90 42//90 40//90
f 42//91 41//91 40//91
