# Blender v2.78 (sub 0) OBJ File: 'Cloud_1.blend'
# www.blender.org
mtllib cloud1.mtl
o Cloud_3_Icosphere.042
v -1.260107 -0.472455 -0.674983
v -0.936267 -0.487928 -1.056214
v -0.810494 0.156857 -0.205141
v -0.906213 0.439584 -0.606823
v -0.718584 -0.677484 -0.606823
v -0.914915 -0.284826 -0.138900
v -0.343860 -0.306785 -0.400683
v -0.262731 -0.090733 -0.674983
v -1.357717 0.024083 -0.608828
v -0.504828 -0.309040 -1.094644
v -1.043830 0.024082 -1.173168
v -0.364691 0.234555 -0.674983
v -0.688531 0.250027 -1.056214
v -0.650374 0.156857 0.871929
v -0.511686 0.071139 0.305267
v -0.297930 0.439584 0.656768
v -0.306631 -0.284826 1.261010
v 0.264423 -0.306785 0.999227
v -0.110301 -0.677484 0.656768
v -0.382567 -0.623208 0.854580
v -0.745639 -0.284825 0.793088
v -0.478739 -0.394756 0.343696
v 0.345552 -0.090733 0.724927
v 0.103455 -0.309039 0.305267
v -0.126832 0.006099 0.200318
v -0.170085 0.238037 1.147124
v 0.243592 0.234555 0.724927
v 1.178288 1.030328 0.541383
v 0.731797 0.812182 -0.558970
v 1.359561 0.918291 -0.199275
v 0.778767 1.639280 0.606974
v 0.192993 1.639277 0.185003
v 0.374265 1.527241 -0.555655
v 1.361099 1.639279 0.180264
v 0.837165 1.963084 0.180265
v 0.715388 0.594484 0.180264
v 1.064586 0.619692 -0.007136
v 0.191453 0.918291 0.180264
v 0.291080 0.775405 -0.176600
v 1.494722 1.315666 -0.007136
v 0.555312 1.165147 0.672922
v 0.057831 1.241901 -0.007136
v 0.998290 1.315666 -0.690419
v 1.261472 1.782162 -0.176600
v 0.487968 1.937876 -0.007136
v 0.938178 1.761057 -0.505426
v 1.014307 -0.242366 -0.194536
v 1.660019 0.802427 -0.194537
v 1.554650 -0.348475 0.544698
v 2.182414 -0.242367 0.185003
v 1.887440 -0.540964 -0.007136
v 1.113934 -0.385252 0.162328
v 1.538242 -0.566172 -0.194536
v 2.317576 0.155009 -0.007136
v 2.003668 0.118127 0.549661
v 1.377118 0.081245 0.676146
v 1.378166 0.004491 -0.687194
v 0.880685 0.081245 -0.007136
v 2.001142 -0.130330 -0.555656
v 1.236148 0.478621 0.488223
v 1.015846 0.478620 -0.199275
v 1.601620 0.478622 -0.621245
v 2.183955 0.478621 -0.194538
v 1.761032 0.600401 0.491154
v 2.084327 0.621506 0.162328
v 1.310822 0.777219 -0.007136
v -1.551029 -0.554702 -0.505427
v -1.386637 0.288067 0.606973
v -1.752109 0.288065 -0.502497
v -0.804303 0.288065 0.180265
v -1.328238 0.611871 0.180264
v -1.450016 -0.756728 0.180264
v -1.391616 -0.432923 0.606973
v -0.805843 -0.432922 0.185003
v -1.100818 -0.731520 -0.007136
v -1.973951 -0.432923 0.180264
v -1.874323 -0.575809 -0.176599
v -0.670681 -0.035547 -0.007136
v -1.167114 -0.035546 0.676146
v -2.001532 0.173082 0.351389
v -2.107572 -0.109311 -0.007136
v -0.987115 -0.320885 -0.555655
v -1.611140 -0.109311 -0.690419
v -0.903930 0.430951 -0.176600
v -1.677436 0.586663 -0.007136
v -1.227225 0.409845 -0.505426
v -1.372704 0.053401 -0.279425
v -1.370467 1.100983 0.272038
v -1.050373 1.100983 -0.726885
v 0.326773 1.100984 0.265154
v -0.434495 1.571468 -0.279426
v -0.587594 -0.100772 0.794669
v 0.324536 0.053403 0.272039
v -0.104058 -0.380456 -0.007136
v -1.227949 -0.154208 0.239092
v -0.611436 -0.417083 -0.279426
v 0.520924 0.630781 -0.007136
v -0.200384 0.630782 0.985662
v -1.110751 0.577193 0.801880
v -0.989834 0.339709 -0.899431
v -1.566854 0.523603 -0.007136
v 0.061150 0.216189 -0.804126
v -0.376193 0.814677 -1.003436
v -0.458336 1.255158 0.794669
v 0.182017 1.308594 -0.253364
v -0.941874 1.534841 -0.007136
v -0.333310 -0.371018 -0.279425
v 0.281188 -0.547962 -0.731143
v 0.520047 0.676566 0.885154
v -0.331073 0.676564 0.272038
v -0.067687 0.513777 -0.804125
v 0.604899 1.147049 0.265153
v 0.427958 -0.841502 0.265154
v 0.512811 -0.371019 0.885154
v 1.363930 -0.371016 0.272039
v 0.935336 -0.804875 -0.007136
v -0.188554 -0.578628 0.239092
v 1.043835 -0.371018 -0.726885
v 1.560318 0.206362 -0.007136
v 1.104215 0.152774 0.801880
v 0.193848 0.099184 0.985661
v -0.527460 0.099184 -0.007136
v 0.839010 0.206363 -0.999934
v 1.366167 0.676565 -0.279427
v 1.221411 0.884176 0.239092
v 0.097520 1.110422 -0.007136
v 0.751669 0.853508 -0.731143
vn -0.3185 -0.9188 -0.2333
vn -0.7343 -0.2940 -0.6118
vn 0.3631 0.8005 0.4769
vn -0.5617 0.6076 0.5615
vn -0.6330 0.6895 -0.3521
vn 0.3185 0.9188 -0.2333
vn -0.3411 0.7955 -0.5008
vn 0.7795 0.2443 -0.5768
vn 0.7364 0.2842 -0.6140
vn -0.6133 0.2570 0.7469
vn 0.6444 0.3652 0.6718
vn 0.8474 0.2656 0.4598
vn 0.2275 0.1410 -0.9635
vn 0.0051 -0.2217 -0.9751
vn -0.8690 -0.1064 -0.4833
vn -0.7793 -0.2308 0.5826
vn 0.4176 0.0374 0.9079
vn 0.8170 -0.5452 -0.1877
vn 0.2964 -0.8201 -0.4895
vn -0.3604 -0.7835 0.5063
vn 0.7386 -0.6525 -0.1692
vn 0.2876 -0.6708 0.6836
vn -0.2773 -0.0984 -0.9557
vn -0.3867 0.8131 0.4350
vn -0.6976 0.6633 -0.2711
vn -0.0711 0.7098 -0.7008
vn 0.3525 0.7410 -0.5716
vn 0.3062 0.9059 0.2925
vn 0.7093 0.3070 -0.6345
vn -0.9316 0.2483 -0.2656
vn -0.5116 0.3083 0.8020
vn 0.6689 0.3563 0.6524
vn -0.0145 -0.3254 -0.9454
vn -0.8661 -0.1016 -0.4895
vn -0.7288 0.0351 0.6838
vn 0.4179 0.0878 0.9042
vn 0.0574 -0.7064 -0.7055
vn -0.3980 -0.8631 -0.3110
vn -0.6483 -0.7330 -0.2057
vn -0.6092 -0.5498 0.5715
vn 0.7690 -0.6144 -0.1764
vn 0.2727 -0.7638 0.5850
vn 0.2371 -0.7776 0.5823
vn 0.7666 -0.5801 0.2754
vn -0.1658 -0.9450 -0.2820
vn -0.0830 -0.9555 -0.2832
vn 0.8617 -0.4262 0.2754
vn -0.6103 -0.3018 -0.7324
vn 0.4992 -0.4565 -0.7365
vn -0.2482 -0.1196 -0.9613
vn 0.8090 0.0090 -0.5878
vn 0.4272 0.6912 0.5829
vn -0.3933 0.7398 0.5459
vn -0.7666 0.5801 -0.2754
vn 0.1933 0.9485 -0.2510
vn 0.0764 0.9594 -0.2714
vn -0.2819 0.7952 -0.5369
vn -0.3439 0.7701 0.5373
vn 0.5161 0.8351 0.1903
vn 0.9031 0.4212 -0.0835
vn 0.7947 0.1876 -0.5773
vn 0.6523 0.3641 -0.6647
vn -0.0728 0.3742 -0.9245
vn -0.8617 0.4262 -0.2754
vn -0.5449 0.3620 0.7564
vn 0.5660 0.2881 0.7724
vn 0.8532 0.0517 0.5191
vn -0.8019 -0.1959 -0.5645
vn -0.9031 -0.4212 -0.0835
vn -0.8076 -0.0104 0.5896
vn -0.8066 0.0092 0.5911
vn 0.2137 0.0351 0.9763
vn 0.4211 -0.7470 -0.5145
vn -0.5161 -0.8351 0.1903
vn -0.4076 -0.6596 0.6315
vn 0.0197 -0.6502 0.7595
vn 0.3353 -0.7862 0.5191
vn -0.0830 -0.9555 0.2832
vn -0.1658 -0.9450 0.2820
vn -0.9031 -0.4212 0.0835
vn 0.8712 -0.0608 0.4871
vn 0.5161 0.8351 -0.1903
vn 0.4272 0.6912 -0.5829
vn -0.3439 0.7701 -0.5373
vn -0.3933 0.7398 -0.5459
vn -0.7639 0.5971 0.2448
vn 0.0764 0.9594 0.2714
vn -0.2004 0.8521 0.4834
vn 0.1933 0.9485 0.2510
vn 0.8532 0.0517 -0.5191
vn 0.5660 0.2881 -0.7724
vn -0.5449 0.3620 -0.7564
vn -0.8614 0.4264 0.2760
vn -0.0972 0.3971 0.9126
vn 0.6401 0.4015 0.6551
vn 0.8383 0.2417 0.4886
vn 0.9031 0.4212 0.0835
vn 0.2137 0.0351 -0.9763
vn -0.8076 -0.0104 -0.5896
vn -0.8066 0.0092 -0.5911
vn -0.8090 -0.0090 0.5878
vn -0.7947 -0.1876 0.5773
vn -0.5651 -0.4458 0.6942
vn 0.1818 0.2080 0.9611
vn 0.2053 -0.2077 0.9564
vn 0.4952 -0.4842 0.7214
vn 0.8617 -0.4262 -0.2754
vn 0.3353 -0.7862 -0.5191
vn 0.0197 -0.6502 -0.7595
vn -0.4076 -0.6596 -0.6315
vn -0.5161 -0.8351 -0.1903
vn 0.7666 -0.5801 -0.2754
vn 0.4211 -0.7470 0.5145
vn -0.1933 -0.9485 -0.2510
vn -0.0764 -0.9594 -0.2714
vn -0.6523 -0.3641 -0.6647
vn 0.8090 0.0090 0.5878
vn -0.3543 0.0375 0.9344
vn -0.3665 0.7566 0.5415
vn -0.8436 0.5066 -0.1782
vn -0.2004 0.8521 -0.4834
vn 0.8019 0.1959 -0.5645
vn 0.6779 0.2698 -0.6838
vn -0.0972 0.3971 -0.9126
vn -0.8308 0.5295 -0.1714
vn -0.3743 -0.0560 0.9256
vn 0.5128 0.4974 0.6998
vn 0.8090 -0.0063 0.5878
vn 0.2571 0.1501 -0.9547
vn 0.0728 -0.3742 -0.9245
vn -0.8090 -0.0090 -0.5878
vn -0.7947 -0.1876 -0.5773
vn -0.9093 -0.1509 0.3878
vn -0.5728 -0.2468 0.7817
vn 0.5287 -0.4264 0.7339
vn 0.2819 -0.7952 -0.5369
vn -0.4272 -0.6912 0.5829
vn 0.3439 -0.7701 0.5373
vn 0.3933 -0.7398 0.5459
vn -0.1868 -0.1544 0.9702
vn -0.4211 0.7470 0.5145
vn -0.7639 0.5971 -0.2448
vn -0.0029 0.6912 -0.7227
vn 0.3137 0.6689 -0.6739
vn -0.3057 0.8351 -0.4573
vn 0.0830 0.9555 0.2832
vn 0.3679 0.8897 0.2702
vn 0.3527 0.8985 0.2613
vn 0.6793 0.2691 -0.6827
vn -0.3035 0.1876 -0.9342
vn -0.8614 0.4264 -0.2760
vn -0.4952 0.4842 0.7214
vn -0.2053 0.2077 0.9564
vn 0.5592 0.4450 0.6995
vn 0.0540 -0.2797 -0.9586
vn -0.8327 0.0586 -0.5506
vn -0.8426 -0.0368 -0.5373
vn -0.8712 0.0608 0.4871
vn -0.8383 -0.2417 0.4886
vn -0.5658 -0.4440 0.6948
vn 0.4992 -0.4565 0.7365
vn -0.0046 -0.6351 -0.7724
vn -0.4272 -0.6912 -0.5829
vn -0.3759 -0.9024 -0.2105
vn -0.6193 -0.2545 -0.7428
vn -0.2571 -0.1501 -0.9547
vn 0.3356 0.7277 0.5982
vn 0.3759 0.9024 -0.2105
vn 0.4231 0.8757 -0.2325
vn 0.8090 -0.0063 -0.5878
vn 0.6170 0.3714 -0.6938
vn -0.5287 0.4264 0.7339
vn 0.5205 0.4668 0.7150
vn 0.0972 -0.3971 -0.9126
vn -0.8532 -0.0517 -0.5191
vn -0.5054 -0.4941 0.7074
vn 0.1941 0.0608 0.9791
vn 0.2014 -0.0721 0.9768
vn 0.5162 -0.4689 0.7166
vn 0.8614 -0.4264 -0.2760
vn 0.2004 -0.8521 -0.4834
vn -0.4231 -0.8757 -0.2325
vn -0.3356 -0.7277 0.5982
vn 0.7639 -0.5971 -0.2448
usemtl Material
s 1
f 5//1 1//1 2//1
f 2//2 1//2 11//2
f 3//3 12//3 4//3
f 9//4 3//4 4//4
f 11//5 9//5 4//5
f 12//6 13//6 4//6
f 13//7 11//7 4//7
f 8//8 10//8 12//8
f 10//9 13//9 12//9
f 6//10 3//10 9//10
f 7//11 12//11 3//11
f 7//12 8//12 12//12
f 10//13 11//13 13//13
f 10//14 2//14 11//14
f 11//15 1//15 9//15
f 9//16 1//16 6//16
f 6//17 7//17 3//17
f 7//18 10//18 8//18
f 5//19 2//19 10//19
f 5//20 6//20 1//20
f 7//21 5//21 10//21
f 5//22 7//22 6//22
f 22//23 15//23 25//23
f 14//24 26//24 16//24
f 15//25 14//25 16//25
f 25//26 15//26 16//26
f 27//27 25//27 16//27
f 26//28 27//28 16//28
f 23//8 24//8 27//8
f 24//29 25//29 27//29
f 21//30 14//30 15//30
f 17//31 26//31 14//31
f 18//32 27//32 26//32
f 18//12 23//12 27//12
f 24//33 22//33 25//33
f 15//34 22//34 21//34
f 21//35 17//35 14//35
f 17//36 18//36 26//36
f 18//18 24//18 23//18
f 19//37 22//37 24//37
f 19//38 20//38 22//38
f 20//39 21//39 22//39
f 20//40 17//40 21//40
f 18//41 19//41 24//41
f 20//42 19//42 17//42
f 19//43 18//43 17//43
f 28//44 37//44 30//44
f 36//45 39//45 29//45
f 36//46 29//46 37//46
f 28//47 30//47 40//47
f 29//48 39//48 33//48
f 30//49 29//49 43//49
f 29//50 33//50 43//50
f 30//51 43//51 40//51
f 31//52 34//52 35//52
f 32//53 31//53 45//53
f 33//54 32//54 45//54
f 44//55 46//55 35//55
f 46//56 45//56 35//56
f 46//57 33//57 45//57
f 45//58 31//58 35//58
f 35//59 34//59 44//59
f 40//60 44//60 34//60
f 40//61 43//61 44//61
f 43//62 46//62 44//62
f 43//63 33//63 46//63
f 42//64 32//64 33//64
f 41//65 31//65 32//65
f 28//66 34//66 31//66
f 28//67 40//67 34//67
f 33//68 39//68 42//68
f 39//69 38//69 42//69
f 42//70 41//70 32//70
f 42//71 38//71 41//71
f 41//72 28//72 31//72
f 37//73 29//73 30//73
f 39//74 36//74 38//74
f 36//75 41//75 38//75
f 36//76 28//76 41//76
f 36//77 37//77 28//77
f 53//78 51//78 49//78
f 53//79 49//79 52//79
f 47//80 52//80 58//80
f 50//81 54//81 55//81
f 65//82 63//82 48//82
f 63//83 62//83 48//83
f 48//84 62//84 66//84
f 62//85 61//85 66//85
f 61//86 60//86 66//86
f 66//87 64//87 48//87
f 66//88 60//88 64//88
f 64//89 65//89 48//89
f 54//90 59//90 63//90
f 59//91 62//91 63//91
f 57//92 61//92 62//92
f 58//93 60//93 61//93
f 56//94 64//94 60//94
f 55//95 65//95 64//95
f 55//96 54//96 65//96
f 54//97 63//97 65//97
f 59//98 57//98 62//98
f 57//99 58//99 61//99
f 57//100 47//100 58//100
f 58//101 56//101 60//101
f 58//102 52//102 56//102
f 52//103 49//103 56//103
f 56//104 55//104 64//104
f 56//105 49//105 55//105
f 49//106 50//106 55//106
f 50//107 59//107 54//107
f 51//108 53//108 59//108
f 53//109 57//109 59//109
f 53//110 47//110 57//110
f 53//111 52//111 47//111
f 50//112 51//112 59//112
f 51//113 50//113 49//113
f 72//114 77//114 67//114
f 72//115 67//115 75//115
f 67//116 77//116 83//116
f 74//117 78//117 79//117
f 73//118 79//118 80//118
f 68//52 70//52 71//52
f 80//119 68//119 85//119
f 69//120 80//120 85//120
f 84//55 86//55 71//55
f 86//56 85//56 71//56
f 86//121 69//121 85//121
f 85//58 68//58 71//58
f 71//59 70//59 84//59
f 78//60 84//60 70//60
f 78//122 82//122 84//122
f 82//123 86//123 84//123
f 83//124 69//124 86//124
f 81//125 80//125 69//125
f 80//126 79//126 68//126
f 79//127 70//127 68//127
f 79//128 78//128 70//128
f 82//129 83//129 86//129
f 82//130 67//130 83//130
f 83//131 81//131 69//131
f 83//132 77//132 81//132
f 77//69 76//69 81//69
f 81//133 76//133 80//133
f 76//134 73//134 80//134
f 73//135 74//135 79//135
f 74//107 82//107 78//107
f 75//136 67//136 82//136
f 77//74 72//74 76//74
f 72//137 73//137 76//137
f 74//112 75//112 82//112
f 72//138 75//138 73//138
f 75//139 74//139 73//139
f 96//78 94//78 92//78
f 96//79 92//79 95//79
f 87//80 95//80 101//80
f 93//117 97//117 98//117
f 92//140 98//140 99//140
f 88//141 104//141 106//141
f 89//142 88//142 106//142
f 103//143 89//143 91//143
f 105//144 103//144 91//144
f 91//145 89//145 106//145
f 106//146 104//146 91//146
f 104//147 105//147 91//147
f 104//148 90//148 105//148
f 97//60 105//60 90//60
f 97//122 102//122 105//122
f 102//149 103//149 105//149
f 103//150 100//150 89//150
f 101//151 88//151 89//151
f 99//152 104//152 88//152
f 99//153 98//153 104//153
f 98//154 90//154 104//154
f 98//128 97//128 90//128
f 102//155 100//155 103//155
f 100//156 101//156 89//156
f 100//157 87//157 101//157
f 101//158 99//158 88//158
f 101//159 95//159 99//159
f 95//160 92//160 99//160
f 92//161 93//161 98//161
f 93//107 102//107 97//107
f 94//108 96//108 102//108
f 96//162 100//162 102//162
f 96//163 87//163 100//163
f 96//111 95//111 87//111
f 93//112 94//112 102//112
f 94//113 93//113 92//113
f 113//164 117//164 108//164
f 113//115 108//115 116//115
f 107//80 117//80 122//80
f 108//165 107//165 111//165
f 115//81 119//81 120//81
f 108//166 111//166 123//166
f 118//51 123//51 119//51
f 109//167 125//167 112//167
f 110//53 109//53 126//53
f 111//54 110//54 126//54
f 125//168 127//168 112//168
f 125//169 124//169 127//169
f 127//56 126//56 112//56
f 127//57 111//57 126//57
f 126//58 109//58 112//58
f 119//170 123//170 124//170
f 123//171 127//171 124//171
f 123//63 111//63 127//63
f 122//64 110//64 111//64
f 121//172 109//172 110//172
f 120//173 125//173 109//173
f 120//96 119//96 125//96
f 119//97 124//97 125//97
f 118//174 108//174 123//174
f 111//175 107//175 122//175
f 122//101 121//101 110//101
f 122//102 117//102 121//102
f 117//176 114//176 121//176
f 121//177 120//177 109//177
f 121//178 114//178 120//178
f 114//179 115//179 120//179
f 115//180 118//180 119//180
f 116//181 108//181 118//181
f 108//182 117//182 107//182
f 113//183 114//183 117//183
f 115//184 116//184 118//184
f 113//138 116//138 114//138
f 116//139 115//139 114//139
