# Blender v2.78 (sub 0) OBJ File: 'beaker-split.blend'
# www.blender.org
mtllib mybeaker-rightdown.mtl
o Cylinder
v 0.134012 -0.073297 -0.135840
v 0.172360 -0.073297 0.000448
v 0.127879 -0.032313 -0.136239
v 0.163502 -0.073297 0.076033
v 0.161733 -0.073297 -0.074434
v 0.167175 -0.032313 0.001402
v 0.156075 -0.032313 -0.074680
v 0.160292 -0.032313 0.078806
v 0.215450 -0.094950 0.000560
v 0.202166 -0.094950 -0.093042
v 0.208968 -0.053965 0.001753
v 0.195094 -0.053965 -0.093351
v 0.101284 -0.214856 0.099817
v 0.100377 -0.214863 -0.096514
v 0.134012 -0.073297 -0.135840
v 0.136283 -0.073292 0.137335
v -0.000103 -0.221366 -0.112035
v 0.125710 -0.129994 -0.122363
v 0.119174 -0.221366 0.000329
v 0.127619 -0.129852 0.123026
v 0.000235 -0.221361 0.122135
v -0.000376 -0.073297 -0.174532
v 0.172360 -0.073297 0.000448
v 0.000136 -0.073292 0.178248
v 0.001318 -0.129901 0.163851
v 0.156268 -0.130042 0.000028
v -0.000029 -0.130044 -0.155601
v -0.000040 -0.240674 0.001768
v 0.115560 -0.165522 -0.110980
v 0.113703 -0.220587 -0.055079
v 0.117261 -0.165478 0.112087
v 0.060168 -0.220565 0.113800
v 0.127879 -0.032313 -0.136239
v 0.132817 -0.032312 0.139812
v 0.073578 -0.073297 -0.166540
v 0.163502 -0.073297 0.076033
v 0.058781 -0.220587 -0.107645
v 0.131717 -0.102846 -0.130657
v 0.113869 -0.220586 0.056694
v 0.133812 -0.102802 0.131764
v 0.161733 -0.073297 -0.074434
v 0.074776 -0.073275 0.166643
v 0.072815 -0.129648 0.150858
v 0.001417 -0.166216 0.150394
v 0.000452 -0.102804 0.171744
v 0.149239 -0.130016 0.066330
v 0.148783 -0.130039 -0.066123
v 0.143330 -0.166260 0.000048
v 0.166587 -0.102847 0.000139
v 0.068840 -0.130039 -0.149195
v -0.000031 -0.166260 -0.140413
v -0.000128 -0.102848 -0.166999
v -0.000989 -0.032313 -0.173300
v 0.167175 -0.032313 0.001402
v 0.000034 -0.032312 0.180745
v -0.000017 -0.238486 0.066173
v -0.000027 -0.238486 -0.059786
v 0.064663 -0.238486 0.001118
v 0.062644 -0.236467 -0.057861
v 0.072050 -0.032311 0.169543
v 0.156075 -0.032313 -0.074680
v 0.160292 -0.032313 0.078806
v 0.070158 -0.032313 -0.165255
v 0.064102 -0.166166 -0.134558
v 0.157351 -0.102848 -0.071061
v 0.136864 -0.166166 -0.060319
v 0.137163 -0.166161 0.060655
v 0.074113 -0.102705 0.159756
v 0.068294 -0.166023 0.137696
v 0.158320 -0.102842 0.071748
v 0.072163 -0.102848 -0.159793
v 0.062727 -0.236465 0.062103
v 0.126605 -0.236509 0.124772
v 0.125471 -0.236516 -0.120643
v 0.167515 -0.094950 -0.169799
v 0.170353 -0.094945 0.171668
v -0.000129 -0.243018 -0.140044
v 0.157137 -0.151647 -0.152954
v 0.148968 -0.243018 0.000411
v 0.159523 -0.151504 0.153782
v 0.000294 -0.243013 0.152668
v -0.000469 -0.094950 -0.218165
v 0.215450 -0.094950 0.000560
v 0.000170 -0.094945 0.222810
v 0.001647 -0.151554 0.204814
v 0.195336 -0.151695 0.000035
v -0.000037 -0.151697 -0.194501
v -0.000050 -0.262326 0.002211
v 0.144450 -0.187175 -0.138725
v 0.142129 -0.242240 -0.068849
v 0.146576 -0.187131 0.140109
v 0.075210 -0.242217 0.142251
v 0.159849 -0.053965 -0.170299
v 0.166021 -0.053965 0.174765
v 0.091972 -0.094950 -0.208176
v 0.204377 -0.094949 0.095041
v 0.073476 -0.242240 -0.134557
v 0.164646 -0.124498 -0.163321
v 0.142336 -0.242239 0.070867
v 0.167265 -0.124454 0.164705
v 0.202166 -0.094950 -0.093042
v 0.093470 -0.094928 0.208304
v 0.091019 -0.151300 0.188572
v 0.001772 -0.187869 0.187992
v 0.000565 -0.124456 0.214680
v 0.186548 -0.151669 0.082912
v 0.185979 -0.151691 -0.082654
v 0.179163 -0.187913 0.000060
v 0.208234 -0.124500 0.000174
v 0.086050 -0.151691 -0.186493
v -0.000039 -0.187913 -0.175517
v -0.000160 -0.124500 -0.208749
v -0.001236 -0.053965 -0.216625
v 0.208968 -0.053965 0.001753
v 0.000043 -0.053965 0.225932
v -0.000022 -0.260139 0.082716
v -0.000034 -0.260139 -0.074733
v 0.080829 -0.260139 0.001398
v 0.078305 -0.258119 -0.072326
v 0.090062 -0.053963 0.211928
v 0.195094 -0.053965 -0.093351
v 0.200365 -0.053965 0.098507
v 0.087698 -0.053965 -0.206568
v 0.080128 -0.187819 -0.168197
v 0.196689 -0.124500 -0.088826
v 0.171080 -0.187819 -0.075399
v 0.171454 -0.187813 0.075818
v 0.092641 -0.124357 0.199695
v 0.085367 -0.187676 0.172120
v 0.197900 -0.124495 0.089685
v 0.090203 -0.124500 -0.199741
v 0.078408 -0.258118 0.077629
vt 0.2918 0.5473
vt 0.3261 0.5366
vt 0.3320 0.5615
vt 0.2926 0.5681
vt 0.2224 0.0457
vt 0.2031 0.0910
vt 0.1765 0.0873
vt 0.1914 0.0364
vt 0.4151 0.8606
vt 0.4019 0.8362
vt 0.4590 0.8095
vt 0.4733 0.8345
vt 0.2979 0.1636
vt 0.2668 0.1717
vt 0.2720 0.1534
vt 0.2895 0.1304
vt 0.2536 0.5406
vt 0.2888 0.5362
vt 0.2918 0.5473
vt 0.2556 0.5531
vt 0.2186 0.0946
vt 0.2019 0.1272
vt 0.1903 0.1250
vt 0.2031 0.0910
vt 0.2261 0.1609
vt 0.2225 0.1980
vt 0.2087 0.1984
vt 0.2115 0.1600
vt 0.1988 0.1617
vt 0.1959 0.1985
vt 0.1821 0.1988
vt 0.1849 0.1593
vt 0.2488 0.1048
vt 0.2299 0.1326
vt 0.2155 0.1296
vt 0.2338 0.0992
vt 0.3126 0.4941
vt 0.3465 0.4743
vt 0.3567 0.4892
vt 0.3182 0.5082
vt 0.3228 0.5225
vt 0.3660 0.5046
vt 0.3742 0.5201
vt 0.3261 0.5366
vt 0.2491 0.5152
vt 0.2836 0.5111
vt 0.2866 0.5243
vt 0.2514 0.5279
vt 0.2526 0.4466
vt 0.2638 0.4122
vt 0.3072 0.4316
vt 0.2865 0.4558
vt 0.2158 0.4449
vt 0.2157 0.4048
vt 0.2158 0.4759
vt 0.2449 0.4745
vt 0.2631 0.4707
vt 0.1581 0.1990
vt 0.1605 0.1598
vt 0.1682 0.1224
vt 0.3831 0.5498
vt 0.3320 0.5615
vt 0.1765 0.0873
vt 0.2926 0.5681
vt 0.2580 0.5751
vt 0.2172 0.5562
vt 0.2170 0.5787
vt 0.2160 0.5173
vt 0.2163 0.5304
vt 0.3154 0.1105
vt 0.2704 0.0730
vt 0.2548 0.0631
vt 0.2642 0.1982
vt 0.2386 0.0539
vt 0.2224 0.0457
vt 0.2167 0.5434
vt 0.2986 0.1977
vt 0.3448 0.1971
vt 0.3368 0.1514
vt 0.8692 0.4619
vt 0.9180 0.4661
vt 0.8884 0.4949
vt 0.8601 0.5050
vt 0.6243 0.2957
vt 0.6271 0.2791
vt 0.6863 0.2902
vt 0.6804 0.3043
vt 0.3875 0.9457
vt 0.3940 0.9614
vt 0.3466 0.9879
vt 0.3427 0.9744
vt 0.2893 0.9452
vt 0.2901 0.9633
vt 0.2266 0.9677
vt 0.2270 0.9504
vt 0.2871 0.9785
vt 0.2905 0.9952
vt 0.2262 0.9997
vt 0.2265 0.9831
vt 0.3736 0.9149
vt 0.3806 0.9303
vt 0.3386 0.9583
vt 0.3345 0.9413
vt 0.7100 0.3644
vt 0.7177 0.3489
vt 0.7609 0.3791
vt 0.7488 0.3923
vt 0.7252 0.3335
vt 0.7323 0.3186
vt 0.7847 0.3529
vt 0.7731 0.3658
vt 0.6176 0.3296
vt 0.6210 0.3127
vt 0.6760 0.3194
vt 0.6712 0.3364
vt 0.8665 0.2291
vt 0.9146 0.2287
vt 0.9284 0.2669
vt 0.8704 0.2747
vt 0.8165 0.2248
vt 0.8123 0.2747
vt 0.8202 0.1806
vt 0.8636 0.1879
vt 0.8893 0.1989
vt 0.7257 0.5854
vt 0.7194 0.6127
vt 0.6599 0.6122
vt 0.6597 0.5846
vt 0.7854 0.5907
vt 0.7773 0.6160
vt 0.3634 0.8812
vt 0.3508 0.8566
vt 0.4019 0.8362
vt 0.4151 0.8606
vt 0.8410 0.6060
vt 0.8270 0.6299
vt 0.9026 0.6269
vt 0.8907 0.6533
vt 0.3015 0.8879
vt 0.2988 0.8603
vt 0.2373 0.8879
vt 0.2377 0.8596
vt 0.8792 0.1364
vt 0.9333 0.1567
vt 0.8248 0.1272
vt 0.5654 0.3266
vt 0.5654 0.3094
vt 0.9596 0.1987
vt 0.9842 0.2439
vt 0.9592 0.5007
vt 0.9275 0.5391
vt 0.9370 0.4297
vt 0.9890 0.4589
vt 0.4129 0.8885
vt 0.4244 0.9019
vt 0.8810 0.5529
vt 0.8156 0.5618
vt 0.8169 0.5089
vt 0.4359 0.9154
vt 0.4470 0.9285
vt 0.5655 0.2922
vt 0.5654 0.2753
vt 0.8199 0.4618
vt 0.8235 0.4072
vt 0.8810 0.4142
vt 0.0000 0.0000
vt 0.0000 0.0000
vt 0.0000 0.0000
vn -0.9030 -0.1266 0.4106
vn -0.9901 -0.0968 -0.1019
vn 0.9766 0.1630 -0.1405
vn -0.2708 0.9282 -0.2550
vn -0.4369 0.2043 0.8760
vn -0.9046 0.1816 -0.3858
vn -0.1722 0.3479 -0.9216
vn -0.1534 0.2198 -0.9634
vn -0.8732 0.3512 -0.3381
vn -0.9380 0.3307 0.1037
vn -0.9757 0.1745 0.1327
vn -0.3914 0.3849 0.8359
vn -0.2988 0.9533 0.0429
vn -0.0333 0.9988 0.0354
vn -0.0379 0.9504 0.3088
vn -0.2568 0.9285 0.2683
vn -0.1534 0.0597 -0.9864
vn -0.4347 0.0262 -0.9002
vn -0.9813 -0.1310 0.1412
vn -0.9118 -0.0481 -0.4078
vn -0.4502 -0.0621 0.8908
vn -0.1098 -0.0359 0.9933
vn -0.3437 0.4057 0.8470
vn -0.0772 0.4523 0.8885
vn -0.0850 0.3845 0.9192
vn -0.9353 0.3349 0.1139
vn -0.8723 0.3233 0.3669
vn -0.9032 0.1597 0.3983
vn -0.9119 0.3988 0.0970
vn -0.8559 0.3824 0.3483
vn -0.8635 0.3525 0.3607
vn -0.8671 0.3786 -0.3236
vn -0.9125 0.3984 -0.0925
vn -0.9382 0.3320 -0.0979
vn -0.1628 0.2940 -0.9419
vn -0.4123 0.3341 -0.8476
vn -0.4178 0.2091 -0.8842
vn -0.1506 0.4349 -0.8878
vn -0.3939 0.3823 -0.8359
vn -0.4272 0.3651 -0.8272
vn -0.8754 0.3371 -0.3466
vn -0.9334 0.3436 -0.1036
vn -0.9753 0.1896 -0.1135
vn -0.4041 0.3615 0.8403
vn -0.0889 0.3780 0.9215
vn -0.1005 0.2356 0.9667
vn -0.0516 0.9544 -0.2939
vn -0.0342 0.9988 -0.0341
vn -0.3001 0.9530 -0.0413
vn 0.2222 -0.9523 0.2093
vn 0.4318 -0.2524 -0.8659
vn 0.8963 -0.2249 0.3822
vn 0.1666 -0.4208 0.8917
vn 0.1514 -0.2711 0.9506
vn 0.8444 -0.4245 0.3269
vn 0.9105 -0.4012 -0.1006
vn 0.9674 -0.2163 -0.1315
vn 0.3761 -0.4622 -0.8031
vn 0.2431 -0.9694 -0.0349
vn 0.0267 -0.9992 -0.0283
vn 0.0309 -0.9674 -0.2515
vn 0.2107 -0.9524 -0.2202
vn 0.1533 -0.0745 0.9854
vn 0.4346 -0.0328 0.9000
vn 0.8989 0.1576 -0.4088
vn 0.9112 0.0601 0.4075
vn 0.9875 0.1206 0.1016
vn 0.4497 0.0775 -0.8898
vn 0.1097 0.0449 -0.9929
vn 0.3288 -0.4851 -0.8103
vn 0.0731 -0.5354 -0.8414
vn 0.0817 -0.4618 -0.8832
vn 0.9072 -0.4060 -0.1104
vn 0.8477 -0.3927 -0.3566
vn 0.8968 -0.1982 -0.3955
vn 0.8736 -0.4776 -0.0930
vn 0.8227 -0.4595 -0.3348
vn 0.8348 -0.4260 -0.3487
vn 0.8341 -0.4553 0.3113
vn 0.8743 -0.4772 0.0886
vn 0.9104 -0.4027 0.0950
vn 0.1590 -0.3588 0.9198
vn 0.4000 -0.4051 0.8222
vn 0.4127 -0.2582 0.8735
vn 0.1432 -0.5168 0.8440
vn 0.3787 -0.4593 0.8035
vn 0.4120 -0.4402 0.7978
vn 0.8487 -0.4085 0.3360
vn 0.9039 -0.4159 0.1003
vn 0.9656 -0.2347 0.1123
vn 0.3900 -0.4361 -0.8110
vn 0.0855 -0.4545 -0.8866
vn 0.0989 -0.2900 -0.9519
vn 0.0420 -0.9701 0.2390
vn 0.0274 -0.9993 0.0273
vn 0.2441 -0.9692 0.0336
vn -1.0000 -0.0030 0.0029
vn 0.0505 0.8933 -0.4467
vn 0.1955 0.9003 -0.3889
vn 0.4070 0.8942 -0.1864
vn 0.4594 0.8857 -0.0670
vn 0.4594 0.8873 0.0408
vn 0.3980 0.8997 0.1792
vn 0.1872 0.9047 0.3826
vn 0.0671 0.8998 0.4312
usemtl Material.001
s off
f 1/1/1 5/2/1 7/3/1 3/4/1
f 2/5/2 4/6/2 8/7/2 6/8/2
f 10/9/3 12/10/3 11/11/3 9/12/3
f 72/13/4 32/14/4 13/15/4 39/16/4
f 71/17/5 38/18/5 15/19/5 35/20/5
f 70/21/6 40/22/6 16/23/6 36/24/6
f 69/25/7 44/26/7 25/27/7 43/28/7
f 68/29/8 45/30/8 24/31/8 42/32/8
f 67/33/9 31/34/9 20/35/9 46/36/9
f 66/37/10 48/38/10 26/39/10 47/40/10
f 65/41/11 49/42/11 23/43/11 41/44/11
f 64/45/12 29/46/12 18/47/12 50/48/12
f 59/49/13 58/50/13 19/51/13 30/52/13
f 57/53/14 28/54/14 58/50/14 59/49/14
f 17/55/15 57/53/15 59/49/15 37/56/15
f 37/56/16 59/49/16 30/52/16 14/57/16
f 42/32/17 24/31/17 55/58/17 60/59/17
f 16/23/18 42/32/18 60/59/18 34/60/18
f 41/44/19 23/43/19 54/61/19 61/62/19
f 36/24/20 16/23/20 34/60/20 62/63/20
f 35/20/21 15/19/21 33/64/21 63/65/21
f 22/66/22 35/20/22 63/65/22 53/67/22
f 37/56/23 14/57/23 29/46/23 64/45/23
f 17/55/24 37/56/24 64/45/24 51/68/24
f 51/68/25 64/45/25 50/48/25 27/69/25
f 47/40/26 26/39/26 49/42/26 65/41/26
f 18/47/27 47/40/27 65/41/27 38/18/27
f 38/18/28 65/41/28 41/44/28 15/19/28
f 30/52/29 19/51/29 48/38/29 66/37/29
f 14/57/30 30/52/30 66/37/30 29/46/30
f 29/46/31 66/37/31 47/40/31 18/47/31
f 39/16/32 13/15/32 31/34/32 67/33/32
f 19/70/33 39/16/33 67/33/33 48/71/33
f 48/71/34 67/33/34 46/36/34 26/72/34
f 43/28/35 25/27/35 45/30/35 68/29/35
f 20/35/36 43/28/36 68/29/36 40/22/36
f 40/22/37 68/29/37 42/32/37 16/23/37
f 32/14/38 21/73/38 44/26/38 69/25/38
f 13/15/39 32/14/39 69/25/39 31/34/39
f 31/34/40 69/25/40 43/28/40 20/35/40
f 46/36/41 20/35/41 40/22/41 70/21/41
f 26/72/42 46/36/42 70/21/42 49/74/42
f 49/74/43 70/21/43 36/24/43 23/75/43
f 50/48/44 18/47/44 38/18/44 71/17/44
f 27/69/45 50/48/45 71/17/45 52/76/45
f 52/76/46 71/17/46 35/20/46 22/66/46
f 56/77/47 21/73/47 32/14/47 72/13/47
f 28/78/48 56/77/48 72/13/48 58/79/48
f 58/79/49 72/13/49 39/16/49 19/70/49
f 132/80/50 99/81/50 73/82/50 92/83/50
f 131/84/51 95/85/51 75/86/51 98/87/51
f 130/88/52 96/89/52 76/90/52 100/91/52
f 129/92/53 103/93/53 85/94/53 104/95/53
f 128/96/54 102/97/54 84/98/54 105/99/54
f 127/100/55 106/101/55 80/102/55 91/103/55
f 126/104/56 107/105/56 86/106/56 108/107/56
f 125/108/57 101/109/57 83/110/57 109/111/57
f 124/112/58 110/113/58 78/114/58 89/115/58
f 119/116/59 90/117/59 79/118/59 118/119/59
f 117/120/60 119/116/60 118/119/60 88/121/60
f 77/122/61 97/123/61 119/116/61 117/120/61
f 97/123/62 74/124/62 90/117/62 119/116/62
f 102/125/63 120/126/63 115/127/63 84/128/63
f 76/129/64 94/130/64 120/126/64 102/125/64
f 75/131/65 93/132/65 121/133/65 101/134/65
f 96/135/66 122/136/66 94/130/66 76/129/66
f 83/137/67 114/138/67 122/136/67 96/135/67
f 95/139/68 123/140/68 93/132/68 75/131/68
f 82/141/69 113/142/69 123/140/69 95/139/69
f 97/123/70 124/143/70 89/144/70 74/124/70
f 77/122/71 111/145/71 124/143/71 97/123/71
f 111/146/72 87/147/72 110/113/72 124/112/72
f 107/105/73 125/108/73 109/111/73 86/106/73
f 78/114/74 98/87/74 125/108/74 107/105/74
f 98/87/75 75/86/75 101/109/75 125/108/75
f 90/117/76 126/148/76 108/149/76 79/118/76
f 74/124/77 89/144/77 126/148/77 90/117/77
f 89/115/78 78/114/78 107/105/78 126/104/78
f 99/81/79 127/150/79 91/151/79 73/82/79
f 79/152/80 108/153/80 127/150/80 99/81/80
f 108/154/81 86/155/81 106/101/81 127/100/81
f 103/93/82 128/96/82 105/99/82 85/94/82
f 80/102/83 100/91/83 128/96/83 103/93/83
f 100/91/84 76/90/84 102/97/84 128/96/84
f 92/83/85 129/156/85 104/157/85 81/158/85
f 73/82/86 91/151/86 129/156/86 92/83/86
f 91/103/87 80/102/87 103/93/87 129/92/87
f 106/101/88 130/88/88 100/91/88 80/102/88
f 86/155/89 109/159/89 130/88/89 106/101/89
f 109/159/90 83/160/90 96/89/90 130/88/90
f 110/113/91 131/84/91 98/87/91 78/114/91
f 87/147/92 112/161/92 131/84/92 110/113/92
f 112/161/93 82/162/93 95/85/93 131/84/93
f 116/163/94 132/80/94 92/83/94 81/158/94
f 88/164/95 118/165/95 132/80/95 116/163/95
f 118/165/96 79/152/96 99/81/96 132/80/96
f 44/26/97 21/73/97 56/77/97 28/54/97 57/53/97 17/55/97 51/68/97 27/69/97 52/76/97 22/66/97 53/67/97 113/142/97 82/162/97 112/161/97 87/147/97 111/145/97 77/122/97 117/120/97 88/164/97 116/163/97 81/158/97 104/95/97 85/94/97 105/99/97 84/128/97 115/127/97 55/58/97 24/31/97 45/30/97 25/27/97
f 63/65/98 123/140/98 113/142/98 53/67/98
f 33/64/99 93/132/99 123/140/99 63/65/99
f 7/3/100 61/166/100 121/133/100 93/132/100 33/64/100 3/4/100
f 11/11/101 12/10/101 121/133/101 61/62/101 54/61/101 114/167/101
f 8/7/102 62/168/102 122/136/102 114/138/102 54/61/102 6/8/102
f 34/60/103 94/130/103 122/136/103 62/168/103
f 60/59/104 120/126/104 94/130/104 34/60/104
f 55/58/105 115/127/105 120/126/105 60/59/105
