# Blender v2.78 (sub 0) OBJ File: ''
# www.blender.org
mtllib mybeaker-rightdown.mtl
o Cylinder
v 0.134012 -0.073297 -0.135840
v 0.161733 -0.073297 -0.074434
v 0.156075 -0.032313 -0.074680
v 0.127879 -0.032313 -0.136239
v 0.172360 -0.073297 0.000448
v 0.163502 -0.073297 0.076033
v 0.160292 -0.032313 0.078806
v 0.167175 -0.032313 0.001402
v 0.202166 -0.094950 -0.093042
v 0.195094 -0.053965 -0.093351
v 0.208968 -0.053965 0.001753
v 0.215450 -0.094950 0.000560
v 0.062727 -0.236465 0.062103
v 0.060168 -0.220565 0.113800
v 0.101284 -0.214856 0.099817
v 0.113869 -0.220586 0.056694
v 0.072163 -0.102848 -0.159793
v 0.131717 -0.102846 -0.130657
v 0.134012 -0.073297 -0.135840
v 0.073578 -0.073297 -0.166540
v 0.158320 -0.102842 0.071748
v 0.133812 -0.102802 0.131764
v 0.136283 -0.073292 0.137335
v 0.163502 -0.073297 0.076033
v 0.068294 -0.166023 0.137696
v 0.001417 -0.166216 0.150394
v 0.001318 -0.129901 0.163851
v 0.072815 -0.129648 0.150858
v 0.074113 -0.102705 0.159756
v 0.000452 -0.102804 0.171744
v 0.000136 -0.073292 0.178248
v 0.074776 -0.073275 0.166643
v 0.137163 -0.166161 0.060655
v 0.117261 -0.165478 0.112087
v 0.127619 -0.129852 0.123026
v 0.149239 -0.130016 0.066330
v 0.136864 -0.166166 -0.060319
v 0.143330 -0.166260 0.000048
v 0.156268 -0.130042 0.000028
v 0.148783 -0.130039 -0.066123
v 0.157351 -0.102848 -0.071061
v 0.166587 -0.102847 0.000139
v 0.172360 -0.073297 0.000448
v 0.161733 -0.073297 -0.074434
v 0.064102 -0.166166 -0.134558
v 0.115560 -0.165522 -0.110980
v 0.125710 -0.129994 -0.122363
v 0.068840 -0.130039 -0.149195
v 0.062644 -0.236467 -0.057861
v 0.064663 -0.238486 0.001118
v 0.119174 -0.221366 0.000329
v 0.113703 -0.220587 -0.055079
v -0.000027 -0.238486 -0.059786
v -0.000040 -0.240674 0.001768
v -0.000103 -0.221366 -0.112035
v 0.058781 -0.220587 -0.107645
v 0.100377 -0.214863 -0.096514
v 0.000034 -0.032312 0.180745
v 0.072050 -0.032311 0.169543
v 0.132817 -0.032312 0.139812
v 0.167175 -0.032313 0.001402
v 0.156075 -0.032313 -0.074680
v 0.160292 -0.032313 0.078806
v 0.127879 -0.032313 -0.136239
v 0.070158 -0.032313 -0.165255
v -0.000376 -0.073297 -0.174532
v -0.000989 -0.032313 -0.173300
v -0.000031 -0.166260 -0.140413
v -0.000029 -0.130044 -0.155601
v 0.000235 -0.221361 0.122135
v -0.000128 -0.102848 -0.166999
v -0.000017 -0.238486 0.066173
v 0.078408 -0.258118 0.077629
v 0.142336 -0.242239 0.070867
v 0.126605 -0.236509 0.124772
v 0.075210 -0.242217 0.142251
v 0.090203 -0.124500 -0.199741
v 0.091972 -0.094950 -0.208176
v 0.167515 -0.094950 -0.169799
v 0.164646 -0.124498 -0.163321
v 0.197900 -0.124495 0.089685
v 0.204377 -0.094949 0.095041
v 0.170353 -0.094945 0.171668
v 0.167265 -0.124454 0.164705
v 0.085367 -0.187676 0.172120
v 0.091019 -0.151300 0.188572
v 0.001647 -0.151554 0.204814
v 0.001772 -0.187869 0.187992
v 0.092641 -0.124357 0.199695
v 0.093470 -0.094928 0.208304
v 0.000170 -0.094945 0.222810
v 0.000565 -0.124456 0.214680
v 0.171454 -0.187813 0.075818
v 0.186548 -0.151669 0.082912
v 0.159523 -0.151504 0.153782
v 0.146576 -0.187131 0.140109
v 0.171080 -0.187819 -0.075399
v 0.185979 -0.151691 -0.082654
v 0.195336 -0.151695 0.000035
v 0.179163 -0.187913 0.000060
v 0.196689 -0.124500 -0.088826
v 0.202166 -0.094950 -0.093042
v 0.215450 -0.094950 0.000560
v 0.208234 -0.124500 0.000174
v 0.080128 -0.187819 -0.168197
v 0.086050 -0.151691 -0.186493
v 0.157137 -0.151647 -0.152954
v 0.144450 -0.187175 -0.138725
v 0.078305 -0.258119 -0.072326
v 0.142129 -0.242240 -0.068849
v 0.148968 -0.243018 0.000411
v 0.080829 -0.260139 0.001398
v -0.000034 -0.260139 -0.074733
v -0.000050 -0.262326 0.002211
v -0.000129 -0.243018 -0.140044
v 0.073476 -0.242240 -0.134557
v 0.125471 -0.236516 -0.120643
v 0.090062 -0.053963 0.211928
v 0.000043 -0.053965 0.225932
v 0.166021 -0.053965 0.174765
v 0.159849 -0.053965 -0.170299
v 0.195094 -0.053965 -0.093351
v 0.200365 -0.053965 0.098507
v 0.208968 -0.053965 0.001753
v 0.087698 -0.053965 -0.206568
v -0.000469 -0.094950 -0.218165
v -0.001236 -0.053965 -0.216625
v -0.000039 -0.187913 -0.175517
v -0.000037 -0.151697 -0.194501
v 0.000294 -0.243013 0.152668
v -0.000160 -0.124500 -0.208749
v -0.000022 -0.260139 0.082716
vt 0.6603 0.5406
vt 0.6064 0.5406
vt 0.6066 0.5765
vt 0.6606 0.5765
vt 0.5408 0.5406
vt 0.4745 0.5406
vt 0.4721 0.5765
vt 0.5399 0.5765
vt 0.6549 0.3950
vt 0.6554 0.4629
vt 0.4979 0.4629
vt 0.4999 0.3950
vt 0.4056 0.1366
vt 0.3240 0.1616
vt 0.3461 0.1707
vt 0.4141 0.1616
vt 0.7557 0.3474
vt 0.7098 0.3474
vt 0.7179 0.3940
vt 0.7664 0.3940
vt 0.3904 0.3474
vt 0.2957 0.3475
vt 0.2869 0.3940
vt 0.3836 0.3940
vt 0.2863 0.2477
vt 0.2663 0.2474
vt 0.2450 0.3047
vt 0.2655 0.3051
vt 0.2515 0.3476
vt 0.2326 0.3475
vt 0.2223 0.3940
vt 0.2406 0.3941
vt 0.4079 0.2475
vt 0.3267 0.2486
vt 0.3094 0.3048
vt 0.3989 0.3045
vt 0.5988 0.2475
vt 0.5035 0.2473
vt 0.5035 0.3045
vt 0.6079 0.3045
vt 0.6157 0.3474
vt 0.5034 0.3474
vt 0.5029 0.3940
vt 0.6210 0.3940
vt 0.7159 0.2475
vt 0.6787 0.2485
vt 0.6967 0.3046
vt 0.7390 0.3045
vt 0.5949 0.1365
vt 0.5018 0.1334
vt 0.5031 0.1604
vt 0.5905 0.1616
vt 0.5979 0.1334
vt 0.5008 0.1299
vt 0.6804 0.1604
vt 0.6734 0.1616
vt 0.6559 0.1706
vt 0.2184 0.4587
vt 0.2360 0.4587
vt 0.2830 0.4587
vt 0.5014 0.4587
vt 0.6214 0.4587
vt 0.3792 0.4587
vt 0.7186 0.4587
vt 0.7644 0.4587
vt 0.7790 0.3940
vt 0.7771 0.4587
vt 0.7252 0.2473
vt 0.7491 0.3045
vt 0.3108 0.1604
vt 0.7671 0.3474
vt 0.3992 0.1334
vt 0.3722 0.1247
vt 0.3834 0.1510
vt 0.2941 0.1605
vt 0.2651 0.1510
vt 0.4233 0.5555
vt 0.4149 0.6208
vt 0.2372 0.5848
vt 0.2493 0.5209
vt 0.3522 0.3460
vt 0.3433 0.3950
vt 0.2164 0.3950
vt 0.2279 0.3461
vt 0.6080 0.2370
vt 0.6152 0.3004
vt 0.4714 0.3069
vt 0.4734 0.2435
vt 0.6167 0.3467
vt 0.6178 0.3952
vt 0.4684 0.4010
vt 0.4691 0.3525
vt 0.3752 0.2411
vt 0.3634 0.3010
vt 0.2460 0.3013
vt 0.2687 0.2423
vt 0.6257 0.2411
vt 0.6377 0.3010
vt 0.5007 0.3010
vt 0.5007 0.2410
vt 0.6479 0.3460
vt 0.6549 0.3950
vt 0.4999 0.3950
vt 0.5005 0.3460
vt 0.4429 0.4038
vt 0.4316 0.4906
vt 0.2663 0.4590
vt 0.2938 0.3772
vt 0.6206 0.1247
vt 0.6148 0.1510
vt 0.5001 0.1497
vt 0.4985 0.1213
vt 0.6246 0.1213
vt 0.4971 0.1177
vt 0.7328 0.1497
vt 0.7237 0.1510
vt 0.7007 0.1605
vt 0.6141 0.4605
vt 0.4699 0.4661
vt 0.2113 0.4629
vt 0.1497 0.4629
vt 0.1557 0.3950
vt 0.7821 0.3950
vt 0.7829 0.4629
vt 0.6554 0.4629
vt 0.3376 0.4629
vt 0.4979 0.4629
vt 0.4040 0.7084
vt 0.2345 0.6741
vt 0.8199 0.4697
vt 0.8370 0.5316
vt 0.7015 0.5668
vt 0.6792 0.5063
vt 0.4518 0.2663
vt 0.3359 0.2652
vt 0.7410 0.2188
vt 0.7722 0.3165
vt 0.6505 0.3491
vt 0.6300 0.2506
vt 0.7912 0.3775
vt 0.6605 0.4123
vt 0.7542 0.3011
vt 0.7714 0.3460
vt 0.7306 0.2422
vt 0.1699 0.3463
vt 0.1884 0.3016
vt 0.5960 0.1379
vt 0.4762 0.1398
vt 0.2156 0.2414
vt 0.8057 0.4233
vt 0.6683 0.4594
vt 0.4889 0.0264
vt 0.6132 0.0337
vt 0.3637 0.1213
vt 0.8454 0.4245
vt 0.8479 0.3599
vt 0.8330 0.3132
vt 0.8105 0.2703
vt 0.7806 0.2132
vt 0.7246 0.1262
vt 0.6215 0.0992
vt 0.5001 0.0957
vt 0.3731 0.0992
vt 0.2627 0.1262
vt 0.2069 0.2132
vt 0.1804 0.2705
vt 0.1648 0.3133
vt 0.1520 0.3599
vt 0.1470 0.4245
vt 0.7398 0.6347
vt 0.8482 0.6065
vt 0.2412 0.7841
vt 0.3767 0.8116
vt 0.6245 0.4988
vt 0.6245 0.4988
vt 0.7265 0.4988
vt 0.7265 0.4988
vt 0.4985 0.4988
vt 0.3702 0.4988
vt 0.3702 0.4988
vt 0.4985 0.4988
vt 0.2692 0.4988
vt 0.2199 0.4988
vt 0.4840 0.5442
vt 0.5993 0.5398
vn -0.9030 -0.1267 0.4106
vn -0.9901 -0.0968 -0.1019
vn 0.9766 0.1630 -0.1405
vn -0.2708 0.9282 -0.2550
vn -0.4369 0.2043 0.8760
vn -0.9046 0.1816 -0.3857
vn -0.1722 0.3480 -0.9216
vn -0.1534 0.2198 -0.9634
vn -0.8732 0.3512 -0.3380
vn -0.9380 0.3306 0.1037
vn -0.9378 0.3312 0.1036
vn -0.9379 0.3310 0.1040
vn -0.9757 0.1745 0.1327
vn -0.3914 0.3849 0.8359
vn -0.2988 0.9533 0.0429
vn -0.0333 0.9988 0.0354
vn -0.0379 0.9504 0.3088
vn -0.2568 0.9285 0.2683
vn -0.1534 0.0597 -0.9864
vn -0.4347 0.0262 -0.9002
vn -0.9813 -0.1310 0.1412
vn -0.9118 -0.0482 -0.4077
vn -0.4502 -0.0621 0.8908
vn -0.1098 -0.0359 0.9933
vn -0.3437 0.4057 0.8470
vn -0.0772 0.4523 0.8885
vn -0.0850 0.3845 0.9192
vn -0.0852 0.3843 0.9193
vn -0.0870 0.3812 0.9204
vn -0.9353 0.3349 0.1139
vn -0.8723 0.3233 0.3669
vn -0.9033 0.1597 0.3983
vn -0.9119 0.3988 0.0970
vn -0.8559 0.3824 0.3483
vn -0.8635 0.3525 0.3607
vn -0.8671 0.3787 -0.3236
vn -0.9125 0.3984 -0.0925
vn -0.9382 0.3320 -0.0979
vn -0.9380 0.3325 -0.0981
vn -0.9381 0.3322 -0.0978
vn -0.1628 0.2939 -0.9419
vn -0.4123 0.3341 -0.8476
vn -0.4178 0.2091 -0.8842
vn -0.1506 0.4349 -0.8878
vn -0.3939 0.3823 -0.8359
vn -0.4272 0.3652 -0.8272
vn -0.8754 0.3371 -0.3466
vn -0.9334 0.3436 -0.1036
vn -0.9753 0.1896 -0.1135
vn -0.4041 0.3615 0.8403
vn -0.0889 0.3780 0.9215
vn -0.1005 0.2355 0.9667
vn -0.0516 0.9544 -0.2939
vn -0.0342 0.9988 -0.0341
vn -0.3001 0.9530 -0.0413
vn 0.2222 -0.9523 0.2093
vn 0.4318 -0.2524 -0.8659
vn 0.8963 -0.2249 0.3822
vn 0.1666 -0.4208 0.8917
vn 0.1514 -0.2711 0.9506
vn 0.8444 -0.4245 0.3269
vn 0.9105 -0.4012 -0.1007
vn 0.9103 -0.4015 -0.1010
vn 0.9103 -0.4015 -0.1007
vn 0.9674 -0.2163 -0.1315
vn 0.3761 -0.4622 -0.8031
vn 0.2431 -0.9694 -0.0349
vn 0.0267 -0.9992 -0.0283
vn 0.0309 -0.9674 -0.2515
vn 0.2107 -0.9524 -0.2202
vn 0.1533 -0.0745 0.9854
vn 0.4346 -0.0328 0.9000
vn 0.8989 0.1576 -0.4088
vn 0.9112 0.0601 0.4075
vn 0.9875 0.1206 0.1016
vn 0.4497 0.0775 -0.8898
vn 0.1097 0.0449 -0.9929
vn 0.3288 -0.4851 -0.8103
vn 0.0731 -0.5354 -0.8414
vn 0.0817 -0.4618 -0.8832
vn 0.0837 -0.4581 -0.8850
vn 0.0815 -0.4614 -0.8834
vn 0.9072 -0.4060 -0.1105
vn 0.8477 -0.3927 -0.3566
vn 0.8968 -0.1982 -0.3955
vn 0.8736 -0.4776 -0.0930
vn 0.8227 -0.4595 -0.3348
vn 0.8348 -0.4260 -0.3488
vn 0.8341 -0.4553 0.3113
vn 0.8743 -0.4772 0.0886
vn 0.9104 -0.4027 0.0950
vn 0.1590 -0.3588 0.9198
vn 0.4000 -0.4051 0.8222
vn 0.4127 -0.2582 0.8735
vn 0.1432 -0.5168 0.8440
vn 0.3787 -0.4593 0.8035
vn 0.4120 -0.4402 0.7978
vn 0.8487 -0.4085 0.3360
vn 0.9039 -0.4159 0.1003
vn 0.9656 -0.2346 0.1123
vn 0.3900 -0.4361 -0.8110
vn 0.0855 -0.4546 -0.8866
vn 0.0989 -0.2900 -0.9519
vn 0.0420 -0.9701 0.2390
vn 0.0274 -0.9993 0.0272
vn 0.2441 -0.9692 0.0336
vn -1.0000 -0.0030 0.0029
vn 0.0505 0.8933 -0.4467
vn 0.1955 0.9003 -0.3889
vn 0.4070 0.8942 -0.1864
vn 0.4594 0.8857 -0.0670
vn 0.4594 0.8873 0.0408
vn 0.3980 0.8997 0.1792
vn 0.1872 0.9047 0.3826
vn 0.0671 0.8998 0.4312
usemtl Material.001
s 1
f 1/1/1 2/2/1 3/3/1 4/4/1
f 5/5/2 6/6/2 7/7/2 8/8/2
f 9/9/3 10/10/3 11/11/3 12/12/3
f 13/13/4 14/14/4 15/15/4 16/16/4
f 17/17/5 18/18/5 19/19/5 20/20/5
f 21/21/6 22/22/6 23/23/6 24/24/6
f 25/25/7 26/26/7 27/27/7 28/28/7
f 29/29/8 30/30/8 31/31/8 32/32/8
f 33/33/9 34/34/9 35/35/9 36/36/9
f 37/37/10 38/38/10 39/39/11 40/40/12
f 41/41/13 42/42/13 43/43/13 44/44/13
f 45/45/14 46/46/14 47/47/14 48/48/14
f 49/49/15 50/50/15 51/51/15 52/52/15
f 53/53/16 54/54/16 50/50/16 49/49/16
f 55/55/17 53/53/17 49/49/17 56/56/17
f 56/56/18 49/49/18 52/52/18 57/57/18
f 32/32/19 31/31/19 58/58/19 59/59/19
f 23/23/20 32/32/20 59/59/20 60/60/20
f 44/44/21 43/43/21 61/61/21 62/62/21
f 24/24/22 23/23/22 60/60/22 63/63/22
f 20/20/23 19/19/23 64/64/23 65/65/23
f 66/66/24 20/20/24 65/65/24 67/67/24
f 56/56/25 57/57/25 46/46/25 45/45/25
f 55/55/26 56/56/26 45/45/26 68/68/26
f 68/68/27 45/45/27 48/48/28 69/69/29
f 40/40/12 39/39/11 42/42/30 41/41/30
f 47/47/31 40/40/31 41/41/31 18/18/31
f 18/18/32 41/41/32 44/44/32 19/19/32
f 52/52/33 51/51/33 38/38/33 37/37/33
f 57/57/34 52/52/34 37/37/34 46/46/34
f 46/46/35 37/37/35 40/40/35 47/47/35
f 16/16/36 15/15/36 34/34/36 33/33/36
f 51/51/37 16/16/37 33/33/37 38/38/37
f 38/38/38 33/33/38 36/36/39 39/39/40
f 28/28/41 27/27/41 30/30/41 29/29/41
f 35/35/42 28/28/42 29/29/42 22/22/42
f 22/22/43 29/29/43 32/32/43 23/23/43
f 14/14/44 70/70/44 26/26/44 25/25/44
f 15/15/45 14/14/45 25/25/45 34/34/45
f 34/34/46 25/25/46 28/28/46 35/35/46
f 36/36/47 35/35/47 22/22/47 21/21/47
f 39/39/40 36/36/39 21/21/48 42/42/48
f 42/42/49 21/21/49 24/24/49 43/43/49
f 48/48/50 47/47/50 18/18/50 17/17/50
f 69/69/29 48/48/28 17/17/51 71/71/51
f 71/71/52 17/17/52 20/20/52 66/66/52
f 72/72/53 70/70/53 14/14/53 13/13/53
f 54/54/54 72/72/54 13/13/54 50/50/54
f 50/50/55 13/13/55 16/16/55 51/51/55
f 73/73/56 74/74/56 75/75/56 76/76/56
f 77/77/57 78/78/57 79/79/57 80/80/57
f 81/81/58 82/82/58 83/83/58 84/84/58
f 85/85/59 86/86/59 87/87/59 88/88/59
f 89/89/60 90/90/60 91/91/60 92/92/60
f 93/93/61 94/94/61 95/95/61 96/96/61
f 97/97/62 98/98/63 99/99/64 100/100/62
f 101/101/65 102/102/65 103/103/65 104/104/65
f 105/105/66 106/106/66 107/107/66 108/108/66
f 109/109/67 110/110/67 111/111/67 112/112/67
f 113/113/68 109/109/68 112/112/68 114/114/68
f 115/115/69 116/116/69 109/109/69 113/113/69
f 116/116/70 117/117/70 110/110/70 109/109/70
f 90/90/71 118/118/71 119/119/71 91/91/71
f 83/83/72 120/120/72 118/121/72 90/122/72
f 79/123/73 121/124/73 122/125/73 102/102/73
f 82/82/74 123/126/74 120/120/74 83/83/74
f 103/103/75 124/127/75 123/126/75 82/82/75
f 78/78/76 125/128/76 121/129/76 79/79/76
f 126/130/77 127/131/77 125/132/77 78/133/77
f 116/134/78 105/105/78 108/108/78 117/135/78
f 115/136/79 128/137/79 105/138/79 116/139/79
f 128/137/80 129/140/81 106/141/82 105/138/80
f 98/98/63 101/101/83 104/104/83 99/99/64
f 107/142/84 80/143/84 101/101/84 98/98/84
f 80/143/85 79/123/85 102/102/85 101/101/85
f 110/110/86 97/97/86 100/100/86 111/111/86
f 117/117/87 108/144/87 97/97/87 110/110/87
f 108/144/88 107/142/88 98/98/88 97/97/88
f 74/74/89 93/93/89 96/96/89 75/75/89
f 111/111/90 100/100/90 93/93/90 74/74/90
f 100/100/91 99/99/91 94/94/91 93/93/91
f 86/86/92 89/89/92 92/92/92 87/87/92
f 95/95/93 84/84/93 89/145/93 86/146/93
f 84/84/94 83/83/94 90/122/94 89/145/94
f 76/147/95 85/85/95 88/88/95 130/148/95
f 75/75/96 96/96/96 85/149/96 76/76/96
f 96/96/97 95/95/97 86/146/97 85/149/97
f 94/94/98 81/81/98 84/84/98 95/95/98
f 99/99/99 104/104/99 81/81/99 94/94/99
f 104/104/100 103/103/100 82/82/100 81/81/100
f 106/106/101 77/77/101 80/80/101 107/107/101
f 129/140/81 131/150/102 77/151/102 106/141/82
f 131/150/103 126/130/103 78/133/103 77/151/103
f 132/152/104 73/153/104 76/147/104 130/148/104
f 114/114/105 112/112/105 73/73/105 132/154/105
f 112/112/106 111/111/106 74/74/106 73/73/106
f 26/26/107 70/70/107 72/72/107 54/54/107 53/53/107 55/55/107 68/68/107 69/69/107 71/71/107 66/66/107 67/67/107 127/155/107 126/156/107 131/157/107 129/158/107 128/159/107 115/160/107 113/161/107 114/162/107 132/163/107 130/164/107 88/165/107 87/166/107 92/167/107 91/168/107 119/169/107 58/58/107 31/31/107 30/30/107 27/27/107
f 65/170/108 125/132/108 127/131/108 67/171/108
f 64/172/109 121/129/109 125/128/109 65/173/109
f 3/174/110 62/175/110 122/125/110 121/124/110 64/176/110 4/177/110
f 11/11/111 10/10/111 122/125/111 62/175/111 61/178/111 124/127/111
f 7/179/112 63/180/112 123/126/112 124/127/112 61/178/112 8/181/112
f 60/182/113 120/120/113 123/126/113 63/180/113
f 59/183/114 118/121/114 120/120/114 60/182/114
f 58/184/115 119/119/115 118/118/115 59/185/115
