# Blender v2.78 (sub 0) OBJ File: ''
# www.blender.org
mtllib mybeaker-rightup.mtl
o Cylinder.002_Cylinder.004
v 0.140800 0.057124 0.074675
v 0.113308 0.057124 0.131735
v 0.099212 0.096971 0.122691
v 0.129922 0.096971 0.069327
v 0.052115 0.057124 -0.152090
v 0.100835 0.057124 -0.124640
v 0.084690 0.096971 -0.115060
v 0.040637 0.096971 -0.145224
v 0.154002 0.162346 0.073940
v 0.119788 0.162346 0.129834
v 0.127248 0.179884 0.133170
v 0.162038 0.179884 0.075849
v 0.051513 0.162346 -0.161516
v 0.101898 0.162346 -0.122822
v 0.108464 0.179884 -0.125885
v 0.054913 0.179883 -0.165128
v 0.042715 0.122317 -0.149907
v 0.086456 0.122317 -0.115424
v 0.093902 0.142804 -0.119099
v 0.047253 0.142804 -0.156490
v 0.134409 0.122317 0.069335
v 0.101683 0.122317 0.122394
v 0.110470 0.142804 0.125869
v 0.144066 0.142804 0.071502
v 0.122212 0.122317 -0.062559
v 0.140318 0.122317 0.003318
v 0.149575 0.142804 0.003642
v 0.130796 0.142804 -0.064213
v 0.139768 0.162346 -0.066087
v 0.158936 0.162346 0.003885
v 0.166412 0.179883 0.003874
v 0.147086 0.179883 -0.067644
v 0.058659 0.122317 0.157160
v -0.000245 0.122317 0.170839
v -0.000232 0.142804 0.175207
v 0.063882 0.142804 0.161916
v 0.069203 0.162346 0.165812
v -0.000229 0.162346 0.178382
v -0.000385 0.179883 0.180688
v 0.073351 0.179884 0.168793
v 0.070158 -0.032313 -0.165255
v 0.127879 -0.032313 -0.136239
v 0.115861 0.012475 -0.132321
v 0.062376 0.012475 -0.159656
v 0.160292 -0.032313 0.078806
v 0.132817 -0.032312 0.139812
v 0.124569 0.012475 0.137863
v 0.151442 0.012475 0.077967
v 0.156075 -0.032313 -0.074680
v 0.167175 -0.032313 0.001402
v 0.156273 0.012475 0.002233
v 0.144577 0.012475 -0.071990
v 0.130949 0.057124 -0.067691
v 0.144591 0.057124 0.002872
v 0.135387 0.096971 0.003022
v 0.118712 0.096971 -0.062655
v 0.072050 -0.032311 0.169543
v 0.000034 -0.032312 0.180745
v 0.000064 0.012475 0.178533
v 0.067234 0.012475 0.167792
v 0.061797 0.057124 0.162176
v 0.000213 0.057124 0.172852
v -0.000154 0.096971 0.167100
v 0.056172 0.096971 0.155163
v 0.073730 0.191146 0.170047
v -0.002376 0.191126 0.181126
v -0.016258 0.197450 0.184484
v 0.016304 0.198954 0.192525
v 0.069711 0.197721 0.177155
v 0.164921 0.191146 0.075488
v 0.129757 0.191147 0.134392
v 0.134743 0.197723 0.138542
v 0.167731 0.198974 0.105602
v 0.172713 0.197721 0.070588
v 0.149573 0.191126 -0.067422
v 0.168356 0.191126 0.002029
v 0.170494 0.197450 -0.011159
v 0.155937 0.197450 -0.061967
v 0.055172 0.191126 -0.166648
v 0.110466 0.191145 -0.127055
v 0.113816 0.197720 -0.131251
v 0.081326 0.198947 -0.166638
v 0.049901 0.197450 -0.173364
v -0.011141 0.179883 -0.180501
v -0.009492 0.191126 -0.181700
v 0.002847 0.197450 -0.185094
v 0.147634 0.198947 -0.096735
v 0.182117 0.198954 0.019742
v 0.104403 0.198974 0.171002
v -0.000989 -0.032313 -0.173300
v -0.002822 0.012475 -0.167870
v -0.009344 0.096971 -0.157001
v -0.010027 0.122317 -0.163867
v -0.010537 0.142804 -0.171014
v -0.011006 0.162346 -0.176513
v -0.005694 0.057124 -0.161328
v 0.070188 0.189884 -0.205503
v 0.071639 0.197432 -0.196116
v 0.135395 0.196760 -0.155262
v 0.137693 0.189809 -0.157993
v 0.203863 0.189884 0.095866
v 0.194806 0.197433 0.097174
v 0.159100 0.196760 0.164098
v 0.161675 0.189809 0.167226
v 0.176000 0.035471 0.093344
v 0.162403 0.075318 0.086659
v 0.124015 0.075318 0.153363
v 0.141635 0.035471 0.164668
v 0.065144 0.035471 -0.190112
v 0.050796 0.075318 -0.181530
v 0.105863 0.075318 -0.143825
v 0.126044 0.035471 -0.155800
v 0.192501 0.140698 0.092429
v 0.202495 0.158313 0.094913
v 0.159036 0.158313 0.166447
v 0.149734 0.140698 0.162293
v 0.064395 0.140698 -0.201893
v 0.068711 0.158313 -0.206349
v 0.135569 0.158313 -0.157333
v 0.127372 0.140698 -0.153527
v 0.053394 0.100665 -0.187384
v 0.059067 0.121152 -0.195613
v 0.117377 0.121152 -0.148874
v 0.108070 0.100665 -0.144280
v 0.168011 0.100665 0.086668
v 0.180083 0.121152 0.089377
v 0.138087 0.121152 0.157336
v 0.127104 0.100665 0.152993
v 0.152766 0.100665 -0.078199
v 0.163495 0.121152 -0.080266
v 0.186969 0.121152 0.004553
v 0.175397 0.100665 0.004147
v 0.174708 0.140698 -0.082612
v 0.183803 0.158313 -0.084625
v 0.208008 0.158313 0.005035
v 0.198669 0.140698 0.004863
v 0.087698 -0.053965 -0.206568
v 0.077970 -0.009178 -0.199570
v 0.144826 -0.009178 -0.165401
v 0.159849 -0.053965 -0.170299
v 0.200365 -0.053965 0.098507
v 0.189302 -0.009178 0.097458
v 0.155712 -0.009178 0.172329
v 0.166021 -0.053965 0.174765
v 0.195094 -0.053965 -0.093351
v 0.180722 -0.009178 -0.089987
v 0.195341 -0.009178 0.002792
v 0.208968 -0.053965 0.001753
v 0.163686 0.035471 -0.084614
v 0.148390 0.075318 -0.078319
v 0.169234 0.075318 0.003778
v 0.180739 0.035471 0.003589
v 0.205181 0.170283 0.095628
v 0.205313 0.180351 0.095737
v 0.162012 0.180346 0.167695
v 0.161679 0.170283 0.167604
v 0.186068 0.170283 -0.085177
v 0.186043 0.180351 -0.085249
v 0.209984 0.180351 0.005115
v 0.210200 0.170283 0.005095
v 0.184661 0.189884 -0.085424
v 0.175901 0.197432 -0.086860
v 0.200491 0.197506 0.006970
v 0.208455 0.189894 0.005235
v 0.069854 0.170283 -0.207319
v 0.069988 0.180351 -0.207080
v 0.137982 0.180346 -0.158399
v 0.137776 0.170283 -0.158351
v -0.014105 0.158313 -0.225600
v -0.014244 0.170283 -0.226622
v -0.014288 0.180351 -0.226248
v 0.093657 0.189884 0.209625
v 0.093500 0.180351 0.211296
v 0.095156 0.197433 0.200056
v 0.093281 0.170283 0.211625
v 0.091779 0.158313 0.210941
v -0.015916 0.197506 -0.215751
v -0.027034 0.198954 -0.194837
v 0.077246 0.035471 0.202721
v 0.084043 -0.009178 0.209740
v 0.070215 0.075318 0.193954
v 0.090062 -0.053963 0.211928
v -0.001236 -0.053965 -0.216625
v -0.003528 -0.009178 -0.209838
v 0.086508 0.140698 0.207263
v 0.079853 0.121152 0.202395
v 0.073324 0.100665 0.196450
v -0.011680 0.075318 -0.196251
v -0.012533 0.100665 -0.204833
v -0.013171 0.121152 -0.213768
v -0.013765 0.140698 -0.220640
v -0.007118 0.035471 -0.201661
v -0.014384 0.189894 -0.224544
v 0.001889 0.197506 0.213861
v 0.000043 -0.053965 0.225932
v 0.000080 -0.009178 0.223166
v 0.000267 0.035471 0.216066
v -0.000193 0.075318 0.208875
v -0.000306 0.100665 0.213548
v -0.000289 0.121152 0.219008
v -0.000278 0.140698 0.222975
v -0.000277 0.158313 0.225822
v -0.000275 0.170283 0.225787
v -0.000268 0.180351 0.224835
v -0.000117 0.189894 0.222774
vt 0.3955 0.7534
vt 0.3074 0.7534
vt 0.3214 0.8149
vt 0.4037 0.8149
vt 0.7453 0.7534
vt 0.7029 0.7534
vt 0.6882 0.8149
vt 0.7347 0.8149
vt 0.3966 0.9157
vt 0.3104 0.9157
vt 0.3052 0.9428
vt 0.3936 0.9428
vt 0.7598 0.9157
vt 0.7001 0.9157
vt 0.7049 0.9428
vt 0.7654 0.9428
vt 0.7419 0.8540
vt 0.6887 0.8540
vt 0.6944 0.8856
vt 0.7521 0.8856
vt 0.4037 0.8540
vt 0.3218 0.8540
vt 0.3165 0.8856
vt 0.4004 0.8856
vt 0.6072 0.8540
vt 0.5055 0.8540
vt 0.5050 0.8856
vt 0.6097 0.8856
vt 0.6126 0.9157
vt 0.5047 0.9157
vt 0.5047 0.9428
vt 0.6150 0.9428
vt 0.2682 0.8540
vt 0.2471 0.8540
vt 0.2404 0.8856
vt 0.2609 0.8856
vt 0.2549 0.9157
vt 0.2355 0.9157
vt 0.2319 0.9428
vt 0.2503 0.9428
vt 0.7656 0.6154
vt 0.7208 0.6154
vt 0.7148 0.6845
vt 0.7570 0.6845
vt 0.3891 0.6154
vt 0.2950 0.6154
vt 0.2980 0.6845
vt 0.3904 0.6845
vt 0.6259 0.6154
vt 0.5085 0.6154
vt 0.5072 0.6845
vt 0.6217 0.6845
vt 0.6151 0.7534
vt 0.5062 0.7534
vt 0.5060 0.8149
vt 0.6073 0.8149
vt 0.2491 0.6154
vt 0.2318 0.6154
vt 0.2352 0.6845
vt 0.2518 0.6845
vt 0.2605 0.7534
vt 0.2440 0.7534
vt 0.2529 0.8149
vt 0.2713 0.8149
vt 0.2483 0.9602
vt 0.2312 0.9601
vt 0.2261 0.9699
vt 0.2137 0.9722
vt 0.2374 0.9703
vt 0.3942 0.9602
vt 0.3033 0.9602
vt 0.2969 0.9703
vt 0.3477 0.9722
vt 0.4018 0.9703
vt 0.6147 0.9601
vt 0.5075 0.9601
vt 0.5279 0.9699
vt 0.6063 0.9699
vt 0.7677 0.9601
vt 0.7067 0.9602
vt 0.7131 0.9703
vt 0.7677 0.9722
vt 0.7781 0.9699
vt 0.7891 0.9428
vt 0.7910 0.9601
vt 0.7962 0.9699
vt 0.6599 0.9722
vt 0.4802 0.9722
vt 0.2469 0.9722
vt 0.7780 0.6154
vt 0.7696 0.6845
vt 0.7529 0.8149
vt 0.7634 0.8540
vt 0.7745 0.8856
vt 0.7830 0.9157
vt 0.7595 0.7534
vt 0.8562 0.9721
vt 0.8404 0.9848
vt 0.7717 0.9836
vt 0.7763 0.9720
vt 0.3494 0.9721
vt 0.3472 0.9848
vt 0.2346 0.9836
vt 0.2294 0.9720
vt 0.3536 0.7124
vt 0.3649 0.7794
vt 0.2527 0.7794
vt 0.2337 0.7124
vt 0.8303 0.7124
vt 0.8159 0.7794
vt 0.7525 0.7794
vt 0.7726 0.7124
vt 0.3552 0.8894
vt 0.3510 0.9190
vt 0.2307 0.9190
vt 0.2377 0.8894
vt 0.8501 0.8894
vt 0.8576 0.9190
vt 0.7752 0.9190
vt 0.7688 0.8894
vt 0.8257 0.8220
vt 0.8396 0.8565
vt 0.7610 0.8565
vt 0.7533 0.8220
vt 0.3649 0.8220
vt 0.3603 0.8565
vt 0.2460 0.8565
vt 0.2533 0.8220
vt 0.6421 0.8220
vt 0.6456 0.8565
vt 0.5030 0.8565
vt 0.5036 0.8220
vt 0.6495 0.8894
vt 0.6529 0.9190
vt 0.5021 0.9190
vt 0.5024 0.8894
vt 0.8580 0.5620
vt 0.8462 0.6373
vt 0.7888 0.6373
vt 0.7970 0.5620
vt 0.3449 0.5620
vt 0.3467 0.6373
vt 0.2208 0.6373
vt 0.2167 0.5620
vt 0.6676 0.5620
vt 0.6619 0.6373
vt 0.5059 0.6373
vt 0.5077 0.5620
vt 0.6529 0.7124
vt 0.6423 0.7794
vt 0.5043 0.7794
vt 0.5046 0.7124
vt 0.3498 0.9391
vt 0.3496 0.9561
vt 0.2286 0.9560
vt 0.2287 0.9391
vt 0.6539 0.9391
vt 0.6540 0.9561
vt 0.5020 0.9561
vt 0.5020 0.9391
vt 0.6543 0.9721
vt 0.6567 0.9848
vt 0.4989 0.9849
vt 0.5018 0.9721
vt 0.8593 0.9391
vt 0.8589 0.9561
vt 0.7770 0.9560
vt 0.7769 0.9391
vt 0.3087 0.9106
vt 0.3077 0.9280
vt 0.1832 0.9170
vt 0.1860 0.8997
vt 0.3064 0.9425
vt 0.1816 0.9315
vt 0.1581 0.9721
vt 0.1553 0.9561
vt 0.1742 0.9848
vt 0.1547 0.9391
vt 0.1559 0.9190
vt 0.6733 0.9873
vt 0.6148 0.9848
vt 0.5294 0.9848
vt 0.4774 0.9873
vt 0.7909 0.9873
vt 0.7313 0.9853
vt 0.8735 0.9849
vt 0.8383 0.9873
vt 0.8219 0.9848
vt 0.8022 0.9848
vt 0.3330 0.9874
vt 0.2776 0.9853
vt 0.2230 0.9874
vt 0.3919 0.9853
vt 0.1697 0.7124
vt 0.1579 0.6373
vt 0.1844 0.7794
vt 0.1542 0.5620
vt 0.3170 0.5928
vt 0.3115 0.6583
vt 0.1932 0.6448
vt 0.1881 0.5778
vt 0.1620 0.8894
vt 0.1702 0.8565
vt 0.1802 0.8220
vt 0.3070 0.7829
vt 0.3075 0.8217
vt 0.2092 0.8119
vt 0.2144 0.7743
vt 0.3085 0.8540
vt 0.2011 0.8439
vt 0.3090 0.8841
vt 0.1930 0.8735
vt 0.3077 0.7242
vt 0.2023 0.7129
vt 0.3047 0.9565
vt 0.1796 0.9453
vt 0.3026 0.9734
vt 0.1731 0.9617
vt 0.2127 0.9853
vt 0.1868 0.9873
vt 0.1509 0.9849
vt 0.1807 0.9700
vt 0.1621 0.5820
vt 0.1664 0.6511
vt 0.1773 0.7200
vt 0.1884 0.7815
vt 0.1812 0.8206
vt 0.1728 0.8522
vt 0.1667 0.8823
vt 0.1623 0.9095
vt 0.1623 0.9280
vt 0.1638 0.9435
vt 0.1670 0.9582
vt 0.8112 0.9722
vt 0.8435 0.9700
vt 0.8571 0.9582
vt 0.8597 0.9435
vt 0.8603 0.9280
vt 0.8587 0.9095
vt 0.8510 0.8823
vt 0.8404 0.8522
vt 0.8266 0.8206
vt 0.8134 0.7815
vt 0.8218 0.7200
vt 0.8344 0.6511
vt 0.8448 0.5820
vt 0.8293 0.5820
vt 0.7734 0.5820
vt 0.6547 0.5820
vt 0.5080 0.5820
vt 0.3587 0.5820
vt 0.2411 0.5820
vt 0.1837 0.5820
vt 0.5015 0.7936
vt 0.5108 0.8343
vt 0.3577 0.8326
vt 0.3602 0.7931
vt 0.5208 0.8727
vt 0.5287 0.9069
vt 0.3543 0.9032
vt 0.3558 0.8699
vt 0.5276 0.5002
vt 0.5174 0.5842
vt 0.3584 0.5847
vt 0.3572 0.5007
vt 0.5072 0.6690
vt 0.4971 0.7458
vt 0.3625 0.7449
vt 0.3611 0.6692
vt 0.5308 0.9294
vt 0.5309 0.9482
vt 0.3538 0.9445
vt 0.3539 0.9256
vt 0.5313 0.9663
vt 0.5361 0.9888
vt 0.3598 0.9843
vt 0.3542 0.9628
vn -0.8320 -0.3399 -0.4385
vn -0.4967 -0.3372 0.7998
vn -0.7772 0.4142 -0.4737
vn -0.5709 0.3071 0.7614
vn -0.5822 0.3536 0.7322
vn -0.5821 0.3531 0.7324
vn -0.5805 0.3501 0.7352
vn -0.7744 0.4144 -0.4781
vn -0.8861 0.3938 0.2444
vn -0.8900 0.3862 0.2421
vn -0.2080 0.2379 -0.9488
vn -0.1661 0.1654 -0.9721
vn -0.4437 -0.1911 0.8756
vn -0.8966 -0.1837 -0.4030
vn -0.9585 -0.2454 0.1454
vn -0.9408 -0.2667 0.2093
vn -0.1555 -0.0520 -0.9865
vn -0.1856 -0.1690 -0.9680
vn -0.0668 0.8081 -0.5852
vn -0.4448 0.8584 -0.2557
vn -0.7484 0.6299 0.2075
vn -0.3282 0.8156 0.4766
vn -0.5796 0.1539 0.8002
vn -0.2246 0.1357 0.9650
vn -0.1726 0.6721 0.7201
vn -0.9449 0.2046 0.2554
vn -0.8202 0.1864 0.5409
vn -0.5063 0.8006 0.3205
vn -0.8359 0.2193 -0.5031
vn -0.9775 0.2045 -0.0525
vn -0.5631 0.8264 -0.0046
vn -0.1513 0.0633 -0.9865
vn -0.5371 0.1599 -0.8282
vn -0.2752 0.8496 -0.4499
vn -0.1626 -0.1333 -0.9776
vn -0.4751 -0.2015 -0.8566
vn -0.5299 -0.2916 -0.7964
vn -0.4485 -0.1021 -0.8879
vn -0.9464 -0.2774 0.1656
vn -0.8445 -0.3278 0.4236
vn -0.8009 -0.3714 0.4697
vn -0.8750 -0.2598 0.4085
vn -0.9738 -0.2147 -0.0745
vn -0.1173 -0.1338 0.9840
vn -0.1863 0.1994 -0.9620
vn -0.5558 0.3590 -0.7498
vn -0.5359 0.3182 -0.7820
vn -0.2154 0.1198 -0.9691
vn -0.6133 0.0863 -0.7851
vn -0.5816 0.3467 -0.7359
vn -0.8748 0.4204 0.2409
vn -0.7604 0.4030 0.5093
vn -0.7724 0.3734 0.5138
vn -0.9548 0.1569 0.2524
vn -0.8302 0.0892 0.5503
vn -0.7706 0.3691 0.5196
vn -0.8534 0.1142 -0.5087
vn -0.9796 0.1825 -0.0842
vn -0.9034 0.4217 -0.0771
vn -0.5884 0.1242 0.7990
vn -0.2370 0.2220 0.9458
vn -0.2356 0.3295 0.9143
vn -0.5788 0.3467 0.7381
vn -0.2292 0.2738 0.9341
vn -0.2239 0.2263 0.9480
vn -0.7602 0.4511 -0.4675
vn -0.8928 0.4454 -0.0676
vn -0.9117 0.4064 -0.0598
vn -0.4544 -0.2734 0.8478
vn -0.1383 -0.1744 0.9749
vn -0.1885 -0.1716 0.9670
vn -0.8762 -0.2579 -0.4073
vn -0.9682 -0.2437 -0.0566
vn -0.9667 -0.2474 -0.0647
vn -0.9674 -0.2457 -0.0606
vn -0.9666 -0.2478 -0.0648
vn 0.4545 0.5867 -0.6702
vn 0.6924 0.6048 0.3933
vn 0.8062 0.4117 0.4249
vn 0.4815 0.4086 -0.7754
vn 0.7431 -0.4924 0.4532
vn 0.5570 -0.3720 -0.7426
vn 0.5627 -0.4272 -0.7077
vn 0.5615 -0.4233 -0.7111
vn 0.5625 -0.4268 -0.7082
vn 0.7395 -0.4947 0.4565
vn 0.8498 -0.4720 -0.2344
vn 0.8566 -0.4604 -0.2329
vn 0.4392 0.2365 -0.8667
vn 0.8882 0.2275 0.3992
vn 0.9426 0.3017 -0.1430
vn 0.9225 0.3269 -0.2053
vn 0.8561 -0.0249 0.5163
vn 0.9663 0.0109 -0.2572
vn 0.6597 0.7312 -0.1734
vn 0.5835 -0.0021 -0.8121
vn 0.5816 -0.1478 -0.8000
vn 0.2241 -0.0901 -0.9704
vn 0.2227 0.0287 -0.9745
vn 0.9567 0.1453 -0.2523
vn 0.8349 0.0801 -0.5445
vn 0.6967 0.5702 -0.4353
vn 0.9496 -0.1820 -0.2551
vn 0.8190 -0.1885 -0.5419
vn 0.8351 -0.0108 -0.5499
vn 0.8333 -0.2250 0.5050
vn 0.9779 -0.2011 0.0571
vn 0.9986 0.0038 0.0534
vn 0.5304 0.0999 0.8419
vn 0.4034 0.6196 0.6734
vn 0.5397 -0.1570 0.8271
vn 0.5390 -0.0048 0.8423
vn 0.0113 0.9999 -0.0030
vn 0.0423 0.9983 -0.0403
vn 0.0025 0.9999 -0.0109
vn 0.0394 0.9985 0.0382
vn 0.0405 0.9992 0.0034
vn 0.4698 0.2490 0.8469
vn 0.5177 0.3561 0.7780
vn 0.4472 0.1272 0.8853
vn 0.9265 0.3395 -0.1621
vn 0.8200 0.3979 -0.4114
vn 0.7715 0.4472 -0.4525
vn 0.8588 0.3188 -0.4010
vn 0.9614 0.2650 0.0735
vn 0.1168 0.1664 -0.9791
vn 0.5367 -0.4332 0.7241
vn 0.5219 -0.3851 0.7612
vn 0.6121 -0.1077 0.7834
vn 0.5628 -0.4194 0.7123
vn 0.8344 -0.5010 -0.2297
vn 0.7279 -0.4822 -0.4875
vn 0.7446 -0.4473 -0.4955
vn 0.9483 -0.1947 -0.2507
vn 0.8283 -0.1112 -0.5491
vn 0.7427 -0.4446 -0.5008
vn 0.8502 -0.1423 0.5068
vn 0.9706 -0.2260 0.0834
vn 0.8614 -0.5026 0.0735
vn 0.5858 -0.1545 -0.7956
vn 0.2337 -0.2737 -0.9330
vn 0.2287 -0.3999 -0.8876
vn 0.5602 -0.4194 -0.7144
vn 0.2245 -0.3350 -0.9151
vn 0.2209 -0.2750 -0.9357
vn 0.7201 -0.5341 0.4429
vn 0.8468 -0.5280 0.0641
vn 0.8734 -0.4836 0.0575
vn 0.4452 0.3348 -0.8305
vn 0.1372 0.2161 -0.9667
vn 0.1870 0.2128 -0.9590
vn 0.8602 0.3165 0.3998
vn 0.9524 0.2997 0.0557
vn 0.9514 0.3021 0.0596
vn 0.9505 0.3041 0.0636
vn 0.9504 0.3045 0.0637
vn 0.8553 0.0896 0.5103
vn 0.9869 0.1535 0.0504
vn 0.6685 0.7428 0.0383
vn 0.5767 0.0875 -0.8123
vn 0.2177 0.1643 -0.9621
vn 0.1427 0.7605 -0.6335
vn 0.0063 0.9993 0.0372
vn -0.0538 0.9981 0.0314
vn -0.9997 -0.0225 0.0069
vn -0.1830 0.7176 0.6719
vn -0.9955 -0.0685 0.0657
vn -0.2968 -0.9549 0.0009
vn 0.2048 -0.2927 0.9340
vn 0.1651 -0.2034 0.9651
vn 0.1554 0.0649 0.9857
vn 0.1842 0.2096 0.9603
vn 0.1460 0.0612 0.9874
vn 0.0928 0.7611 0.6420
vn 0.1384 0.1880 0.9724
vn 0.1545 -0.0365 0.9873
vn 0.1618 0.1658 0.9728
vn 0.1843 -0.2465 0.9515
vn 0.2146 -0.1492 0.9652
usemtl Material.001_beaker_real_T4.jpg
s 1
f 1/1/1 2/2/1 3/3/1 4/4/1
f 5/5/2 6/6/2 7/7/2 8/8/2
f 9/9/3 10/10/3 11/11/3 12/12/3
f 13/13/4 14/14/4 15/15/4 16/16/4
f 17/17/5 18/18/5 19/19/6 20/20/7
f 21/21/8 22/22/8 23/23/8 24/24/8
f 25/25/9 26/26/9 27/27/9 28/28/9
f 29/29/10 30/30/10 31/31/10 32/32/10
f 33/33/11 34/34/11 35/35/11 36/36/11
f 37/37/12 38/38/12 39/39/12 40/40/12
f 41/41/13 42/42/13 43/43/13 44/44/13
f 45/45/14 46/46/14 47/47/14 48/48/14
f 49/49/15 50/50/15 51/51/15 52/52/15
f 53/53/16 54/54/16 55/55/16 56/56/16
f 57/57/17 58/58/17 59/59/17 60/60/17
f 61/61/18 62/62/18 63/63/18 64/64/18
f 65/65/19 66/66/19 67/67/19 68/68/19 69/69/19
f 70/70/20 71/71/20 72/72/20 73/73/20 74/74/20
f 75/75/21 76/76/21 77/77/21 78/78/21
f 79/79/22 80/80/22 81/81/22 82/82/22 83/83/22
f 16/16/23 15/15/23 80/80/23 79/79/23
f 84/84/24 16/16/24 79/79/24 85/85/24
f 85/85/25 79/79/25 83/83/25 86/86/25
f 32/32/26 31/31/26 76/76/26 75/75/26
f 15/15/27 32/32/27 75/75/27 80/80/27
f 80/80/28 75/75/28 78/78/28 87/87/28 81/81/28
f 12/12/29 11/11/29 71/71/29 70/70/29
f 31/31/30 12/12/30 70/70/30 76/76/30
f 76/76/31 70/70/31 74/74/31 88/88/31 77/77/31
f 40/40/32 39/39/32 66/66/32 65/65/32
f 11/11/33 40/40/33 65/65/33 71/71/33
f 71/71/34 65/65/34 69/69/34 89/89/34 72/72/34
f 60/60/35 59/59/35 62/62/35 61/61/35
f 47/47/36 60/60/36 61/61/36 2/2/36
f 2/2/37 61/61/37 64/64/37 3/3/37
f 46/46/38 57/57/38 60/60/38 47/47/38
f 52/52/39 51/51/39 54/54/39 53/53/39
f 43/43/40 52/52/40 53/53/40 6/6/40
f 6/6/41 53/53/41 56/56/41 7/7/41
f 42/42/42 49/49/42 52/52/42 43/43/42
f 50/50/43 45/45/43 48/48/43 51/51/43
f 90/90/44 41/41/44 44/44/44 91/91/44
f 36/36/45 35/35/45 38/38/45 37/37/45
f 23/23/46 36/36/46 37/37/46 10/10/46
f 10/10/47 37/37/47 40/40/47 11/11/47
f 64/64/48 63/63/48 34/34/48 33/33/48
f 3/3/49 64/64/49 33/33/49 22/22/49
f 22/22/50 33/33/50 36/36/50 23/23/50
f 28/28/51 27/27/51 30/30/51 29/29/51
f 19/19/52 28/28/52 29/29/52 14/14/52
f 14/14/53 29/29/53 32/32/53 15/15/53
f 56/56/54 55/55/54 26/26/54 25/25/54
f 7/7/55 56/56/55 25/25/55 18/18/55
f 18/18/56 25/25/56 28/28/56 19/19/56
f 4/4/57 3/3/57 22/22/57 21/21/57
f 55/55/58 4/4/58 21/21/58 26/26/58
f 26/26/59 21/21/59 24/24/59 27/27/59
f 8/8/60 7/7/60 18/18/60 17/17/60
f 92/92/61 8/8/61 17/17/61 93/93/61
f 93/93/62 17/17/62 20/20/62 94/94/62
f 20/20/7 19/19/6 14/14/63 13/13/63
f 94/94/64 20/20/64 13/13/64 95/95/64
f 95/95/65 13/13/65 16/16/65 84/84/65
f 24/24/66 23/23/66 10/10/66 9/9/66
f 27/27/67 24/24/67 9/9/67 30/30/67
f 30/30/68 9/9/68 12/12/68 31/31/68
f 44/44/69 43/43/69 6/6/69 5/5/69
f 91/91/70 44/44/70 5/5/70 96/96/70
f 96/96/71 5/5/71 8/8/71 92/92/71
f 48/48/72 47/47/72 2/2/72 1/1/72
f 51/51/73 48/48/73 1/1/74 54/54/75
f 54/54/75 1/1/74 4/4/76 55/55/76
f 97/97/77 98/98/77 99/99/77 100/100/77
f 101/101/78 102/102/78 103/103/78 104/104/78
f 105/105/79 106/106/79 107/107/79 108/108/79
f 109/109/80 110/110/80 111/111/80 112/112/80
f 113/113/81 114/114/81 115/115/81 116/116/81
f 117/117/82 118/118/82 119/119/82 120/120/82
f 121/121/83 122/122/84 123/123/85 124/124/83
f 125/125/86 126/126/86 127/127/86 128/128/86
f 129/129/87 130/130/87 131/131/87 132/132/87
f 133/133/88 134/134/88 135/135/88 136/136/88
f 137/137/89 138/138/89 139/139/89 140/140/89
f 141/141/90 142/142/90 143/143/90 144/144/90
f 145/145/91 146/146/91 147/147/91 148/148/91
f 149/149/92 150/150/92 151/151/92 152/152/92
f 153/153/93 154/154/93 155/155/93 156/156/93
f 157/157/94 158/158/94 159/159/94 160/160/94
f 161/161/95 162/162/95 163/163/95 164/164/95
f 165/165/96 166/166/96 167/167/96 168/168/96
f 118/118/97 165/165/97 168/168/97 119/119/97
f 169/169/98 170/170/98 165/171/98 118/172/98
f 170/170/99 171/173/99 166/174/99 165/171/99
f 158/158/100 161/161/100 164/164/100 159/159/100
f 167/167/101 100/100/101 161/161/101 158/158/101
f 100/100/102 99/99/102 162/162/102 161/161/102
f 134/134/103 157/157/103 160/160/103 135/135/103
f 119/119/104 168/168/104 157/157/104 134/134/104
f 168/168/105 167/167/105 158/158/105 157/157/105
f 114/114/106 153/153/106 156/156/106 115/115/106
f 135/135/107 160/160/107 153/153/107 114/114/107
f 160/160/108 159/159/108 154/154/108 153/153/108
f 155/155/109 104/104/109 172/175/109 173/176/109
f 104/104/110 103/103/110 174/177/110 172/175/110
f 115/115/111 156/156/111 175/178/111 176/179/111
f 156/156/112 155/155/112 173/176/112 175/178/112
f 162/162/113 87/180/113 78/181/113 77/182/113 88/183/113 163/163/113
f 99/99/114 98/98/114 82/184/114 81/185/114 87/180/114 162/162/114
f 98/98/115 177/186/115 178/187/115 86/188/115 83/189/115 82/184/115
f 102/102/116 73/190/116 72/191/116 89/192/116 174/177/116 103/103/116
f 163/163/117 88/183/117 74/193/117 73/190/117 102/102/117
f 143/143/118 108/108/118 179/194/118 180/195/118
f 108/108/119 107/107/119 181/196/119 179/194/119
f 144/144/120 143/143/120 180/195/120 182/197/120
f 146/146/121 149/149/121 152/152/121 147/147/121
f 139/139/122 112/112/122 149/149/122 146/146/122
f 112/112/123 111/111/123 150/150/123 149/149/123
f 140/140/124 139/139/124 146/146/124 145/145/124
f 148/148/125 147/147/125 142/142/125 141/141/125
f 183/198/126 184/199/126 138/200/126 137/201/126
f 127/127/127 116/116/127 185/202/127 186/203/127
f 116/116/128 115/115/128 176/179/128 185/202/128
f 107/107/129 128/128/129 187/204/129 181/196/129
f 128/128/130 127/127/130 186/203/130 187/204/130
f 130/130/131 133/133/131 136/136/131 131/131/131
f 123/123/132 120/120/132 133/133/132 130/130/132
f 120/120/133 119/119/133 134/134/133 133/133/133
f 150/150/134 129/129/134 132/132/134 151/151/134
f 111/111/135 124/124/135 129/129/135 150/150/135
f 124/124/136 123/123/136 130/130/136 129/129/136
f 106/106/137 125/125/137 128/128/137 107/107/137
f 151/151/138 132/132/138 125/125/138 106/106/138
f 132/132/139 131/131/139 126/126/139 125/125/139
f 110/110/140 121/121/140 124/124/140 111/111/140
f 188/205/141 189/206/141 121/207/141 110/208/141
f 189/206/142 190/209/142 122/210/142 121/207/142
f 122/122/84 117/117/143 120/120/143 123/123/85
f 190/209/144 191/211/144 117/212/144 122/210/144
f 191/211/145 169/169/145 118/172/145 117/212/145
f 126/126/146 113/113/146 116/116/146 127/127/146
f 131/131/147 136/136/147 113/113/147 126/126/147
f 136/136/148 135/135/148 114/114/148 113/113/148
f 138/138/149 109/109/149 112/112/149 139/139/149
f 184/199/150 192/213/150 109/214/150 138/200/150
f 192/213/151 188/205/151 110/208/151 109/214/151
f 142/142/152 105/105/152 108/108/152 143/143/152
f 147/147/153 152/152/154 105/105/155 142/142/153
f 152/152/154 151/151/156 106/106/156 105/105/155
f 154/154/157 101/101/157 104/104/157 155/155/157
f 159/159/158 164/164/158 101/101/158 154/154/158
f 164/164/159 163/163/159 102/102/159 101/101/159
f 166/166/160 97/97/160 100/100/160 167/167/160
f 171/173/161 193/215/161 97/216/161 166/174/161
f 193/215/162 177/217/162 98/218/162 97/216/162
f 89/192/163 69/219/163 68/220/163 194/221/163 174/177/163
f 68/68/164 67/67/164 194/222/164
f 63/63/165 62/62/165 59/59/165 58/58/165 195/223/165 196/224/165 197/225/165 198/226/165 199/227/165 200/228/165 201/229/165 202/230/165 203/231/165 204/232/165 205/233/165 194/222/165 67/67/165 66/66/165 39/39/165 38/38/165 35/35/165 34/34/165
f 85/85/166 86/86/166 178/234/166
f 92/92/167 93/93/167 94/94/167 95/95/167 84/84/167 85/85/167 178/234/167 177/235/167 193/236/167 171/237/167 170/238/167 169/239/167 191/240/167 190/241/167 189/242/167 188/243/167 192/244/167 184/245/167 183/246/167 90/90/167 91/91/167 96/96/167
f 58/58/168 57/57/168 46/46/168 45/45/168 50/50/168 49/49/168 42/42/168 41/41/168 90/90/168 183/246/168 137/247/168 140/248/168 145/249/168 148/250/168 141/251/168 144/252/168 182/253/168 195/223/168
usemtl Material.001_beaker_real_T4.jpg_beaker_real_T4.jpg
f 187/254/169 186/255/169 200/256/169 199/257/169
f 185/258/170 176/259/170 202/260/170 201/261/170
f 182/262/171 180/263/171 196/264/171 195/265/171
f 179/266/172 181/267/172 198/268/172 197/269/172
f 175/270/173 173/271/173 204/272/173 203/273/173
f 172/274/174 174/275/174 194/276/174 205/277/174
f 173/271/175 172/274/175 205/277/175 204/272/175
f 176/259/176 175/270/176 203/273/176 202/260/176
f 180/263/177 179/266/177 197/269/177 196/264/177
f 186/255/178 185/258/178 201/261/178 200/256/178
f 181/267/179 187/254/179 199/257/179 198/268/179
