# Blender v2.78 (sub 0) OBJ File: 'tent.blend'
# www.blender.org
mtllib tent.mtl
o Plane
v -1.000000 -0.025111 0.713733
v 1.000000 -0.053936 0.733926
v -1.000000 -0.015987 -0.608240
v 1.000000 -0.052631 -0.821374
v -1.000000 0.277533 0.016485
v 0.000000 -0.000321 0.946069
v 1.000000 0.234291 0.000000
v 0.000000 -0.000336 -0.944055
v 0.000000 0.968779 0.000000
v -1.000000 0.264229 0.357932
v 0.500000 -0.024591 0.795676
v 1.000000 0.076067 -0.416098
v -0.500000 -0.005606 -0.784024
v -1.000000 0.274539 -0.294285
v -0.500000 -0.009401 0.840207
v 1.000000 0.071049 0.374165
v 0.500000 -0.024430 -0.844432
v 0.000000 0.357769 -0.482186
v 0.000000 0.357357 0.480338
v -0.500000 0.604948 0.007178
v 0.409081 0.586650 0.000000
v 0.500000 0.255752 0.416428
v -0.500000 0.343232 0.433495
v -0.500000 0.350852 -0.405392
v 0.500000 0.258402 -0.434770
vn 0.2025 0.8742 -0.4414
vn -0.1606 0.7520 -0.6393
vn -0.2871 0.6900 0.6645
vn 0.4085 0.7944 0.4495
vn 0.3932 0.6535 0.6468
vn 0.2238 0.7778 0.5873
vn 0.2312 0.8530 0.4679
vn -0.3753 0.8726 0.3126
vn -0.1985 0.7498 0.6312
vn -0.1137 0.7705 0.6273
vn -0.2509 0.7074 -0.6608
vn -0.3878 0.8685 -0.3087
vn -0.3090 0.6837 -0.6611
vn 0.1834 0.7919 -0.5824
vn 0.3849 0.6635 -0.6415
vn 0.4050 0.8117 -0.4208
vn -1.0000 0.0000 0.0000
vn 1.0000 0.0000 0.0000
usemtl tent
s off
f 25//1 12//1 4//1 17//1
f 24//2 18//2 8//2 13//2
f 23//3 19//3 9//3 20//3
f 22//4 16//4 7//4 21//4
f 19//5 22//5 21//5 9//5
f 6//6 11//6 22//6 19//6
f 11//7 2//7 16//7 22//7
f 10//8 23//8 20//8 5//8
f 1//9 15//9 23//9 10//9
f 15//10 6//10 19//10 23//10
f 14//11 24//11 13//11 3//11
f 5//12 20//12 24//12 14//12
f 20//13 9//13 18//13 24//13
f 18//14 25//14 17//14 8//14
f 9//15 21//15 25//15 18//15
f 21//16 7//16 12//16 25//16
f 10//17 5//17 14//17 3//17 1//17
f 16//18 12//18 7//18
