# Blender v2.78 (sub 0) OBJ File: 'toolbox.blend'
# www.blender.org
mtllib toolbox.mtl
o Cube
v -0.380000 -0.230288 0.230000
v -0.380000 -0.230288 -0.230000
v 0.380000 -0.230288 0.230000
v 0.380000 -0.230288 -0.230000
v 0.400000 -0.250000 -0.250000
v 0.400000 -0.250000 0.250000
v -0.400000 -0.250000 0.250000
v -0.400000 -0.250000 -0.250000
v 0.400000 0.250000 -0.250000
v 0.400000 0.250000 0.250000
v -0.400000 0.250000 0.250000
v -0.400000 0.250000 -0.250000
v -0.380000 0.250000 0.230000
v 0.380000 0.250000 0.230000
v -0.380000 0.250000 -0.230000
v 0.380000 0.250000 -0.230000
vn 1.0000 0.0000 0.0000
vn 0.0000 0.0000 1.0000
vn -1.0000 0.0000 0.0000
vn 0.0000 0.0000 -1.0000
vn 0.0000 1.0000 0.0000
vn 0.0000 -1.0000 -0.0000
usemtl Material
s off
f 1//1 2//1 15//1 13//1
f 2//2 4//2 16//2 15//2
f 4//3 3//3 14//3 16//3
f 3//4 1//4 13//4 14//4
f 2//5 1//5 3//5 4//5
f 5//6 6//6 7//6 8//6
f 9//5 12//5 15//5 16//5 14//5 10//5
f 5//1 9//1 10//1 6//1
f 6//2 10//2 11//2 7//2
f 7//3 11//3 12//3 8//3
f 9//4 5//4 8//4 12//4
f 10//5 14//5 13//5 15//5 12//5 11//5
o Cube.001
v 0.400000 0.252537 -0.250000
v 0.400000 0.252537 0.250000
v -0.400000 0.252537 0.250000
v -0.400000 0.252537 -0.250000
v -0.410000 0.160822 0.260000
v -0.410000 0.260822 0.260000
v -0.410000 0.160822 -0.260000
v -0.410000 0.260822 -0.260000
v 0.410000 0.160822 0.260000
v 0.410000 0.260822 0.260000
v 0.410000 0.160822 -0.260000
v 0.410000 0.260822 -0.260000
v -0.400000 0.160822 -0.250000
v -0.400000 0.160822 0.250000
v 0.400000 0.160822 -0.250000
v 0.400000 0.160822 0.250000
vn 0.0000 -1.0000 -0.0000
vn -0.0000 -0.0000 1.0000
vn -1.0000 0.0000 0.0000
vn 0.0000 0.0000 -1.0000
vn 1.0000 0.0000 0.0000
vn 0.0000 1.0000 0.0000
usemtl Material.001
s off
f 17//7 18//7 19//7 20//7
f 17//8 20//8 29//8 31//8
f 21//9 22//9 24//9 23//9
f 23//10 24//10 28//10 27//10
f 27//11 28//11 26//11 25//11
f 25//8 26//8 22//8 21//8
f 23//7 27//7 31//7 29//7 30//7 21//7
f 28//12 24//12 22//12 26//12
f 32//9 18//9 17//9 31//9
f 29//11 20//11 19//11 30//11
f 21//7 30//7 32//7 31//7 27//7 25//7
f 30//10 19//10 18//10 32//10
