# Blender v2.78 (sub 0) OBJ File: ''
# www.blender.org
mtllib brush.mtl
o Cube.001
v -0.600000 -0.050000 -0.836692
v -0.600000 0.050000 -0.836692
v -0.630000 0.050000 -1.636692
v -0.630000 -0.050000 -1.636692
v 0.480000 -0.050000 -1.665139
v 0.480000 0.050000 -1.665139
v 0.630000 0.050000 -1.636692
v 0.630000 -0.050000 -1.636692
v 0.600000 0.050000 -0.836692
v 0.600000 -0.050000 -0.836692
v -0.480000 -0.050000 -0.836692
v -0.480000 0.050000 -0.836692
v 0.480000 -0.050000 -0.836692
v -0.480000 0.050000 -1.665139
v 0.480000 0.050000 -0.836692
v -0.337311 0.050000 -1.683341
v -0.337311 0.050000 -0.836692
v -0.480000 -0.050000 -1.665139
v 0.337103 -0.050000 -1.683358
v 0.337103 -0.050000 -0.836692
v -0.337311 -0.050000 -0.836692
v 0.337103 0.050000 -1.683358
v -0.177311 -0.050000 -1.696689
v -0.177311 0.050000 -1.696689
v 0.000000 0.050000 -1.705185
v 0.000000 -0.050000 -1.705185
v 0.177103 -0.050000 -0.836692
v 0.177103 0.050000 -0.836692
v 0.000000 0.050000 -0.836692
v 0.000000 -0.050000 -0.836692
v -0.177311 -0.050000 -0.836692
v 0.177103 0.050000 -1.696706
v 0.337103 0.050000 -0.836692
v 0.177103 -0.050000 -1.696706
v -0.337311 -0.050000 -1.683341
v -0.177311 0.050000 -0.836692
v -0.460308 0.000000 -0.534217
v -0.460308 0.100000 -0.534217
v -0.650000 0.100000 -0.579895
v -0.650000 0.000000 -0.579895
v 0.650000 0.000000 -0.579895
v 0.650000 0.100000 -0.579895
v 0.460308 0.100000 -0.534217
v 0.460308 0.000000 -0.534217
v 0.371227 0.100000 -0.480868
v 0.371227 0.000000 -0.480868
v 0.243010 0.100000 -0.335451
v 0.243010 0.000000 -0.335451
v 0.180900 0.094479 -0.231315
v 0.180900 0.000000 -0.231315
v 0.154462 0.000000 -0.132369
v 0.154462 0.094602 -0.132369
v 0.154976 0.094726 -0.085973
v 0.154976 0.000000 -0.085973
v 0.190354 -0.000000 0.075409
v 0.190354 0.098681 0.075409
v 0.249828 0.100000 0.191049
v 0.249828 -0.000000 0.191049
v -0.650000 -0.100000 -0.579895
v 0.650000 -0.100000 -0.579895
v 0.460308 -0.100000 -0.534217
v -0.460308 -0.100000 -0.534217
v 0.371227 -0.100000 -0.480868
v -0.371227 -0.100000 -0.480868
v 0.243010 -0.100000 -0.335451
v -0.243010 -0.100000 -0.335451
v 0.180900 -0.094479 -0.231315
v -0.180900 -0.094479 -0.231315
v -0.154462 -0.094602 -0.132369
v 0.154462 -0.094602 -0.132369
v 0.154976 -0.094726 -0.085973
v -0.154976 -0.094726 -0.085973
v -0.190354 -0.098681 0.075409
v 0.190354 -0.098681 0.075409
v 0.249828 -0.100000 0.191049
v -0.249828 -0.100000 0.191049
v -0.371227 0.100000 -0.480868
v -0.243010 0.100000 -0.335451
v -0.180900 0.094479 -0.231315
v -0.154462 0.094602 -0.132369
v -0.154976 0.094726 -0.085973
v -0.190354 0.098681 0.075409
v -0.249828 0.100000 0.191049
v -0.249828 -0.000000 0.191049
v -0.166116 0.000000 -0.008771
v -0.166116 0.097363 -0.008771
v -0.154976 0.000000 -0.085973
v -0.163597 0.000000 -0.185836
v -0.163597 0.094560 -0.185836
v -0.180900 0.000000 -0.231315
v -0.243010 0.000000 -0.335451
v -0.371227 0.000000 -0.480868
v -0.249828 0.100000 0.265248
v -0.190354 -0.000000 0.075409
v 0.166116 0.097363 -0.008771
v 0.166116 -0.097363 -0.008771
v -0.166116 -0.097363 -0.008771
v 0.166116 0.000000 -0.008771
v -0.154462 0.000000 -0.132369
v 0.163597 0.094560 -0.185836
v -0.163597 -0.094560 -0.185836
v 0.163597 -0.094560 -0.185836
v 0.163597 0.000000 -0.185836
v 0.249828 0.100000 0.265248
v -0.249828 -0.000000 0.265248
v -0.249828 -0.100000 0.265248
v 0.249828 -0.100000 0.265248
v 0.249828 -0.000000 0.265248
v -0.650000 0.100000 -1.000000
v -0.650000 0.000000 -1.000000
v 0.650000 0.100000 -1.000000
v 0.650000 0.000000 -1.000000
v -0.650000 -0.100000 -1.000000
v 0.650000 -0.100000 -1.000000
vt 0.5498 0.4973
vt 0.5507 0.3618
vt 0.6251 0.3623
vt 0.6242 0.4978
vt 0.9393 0.5043
vt 0.8632 0.5051
vt 0.8632 0.4871
vt 0.9393 0.4863
vt 0.6881 0.4008
vt 0.6876 0.2802
vt 0.7539 0.2806
vt 0.7544 0.4013
vt 0.8502 0.3404
vt 0.9401 0.3399
vt 0.9401 0.3563
vt 0.8502 0.3567
vt 0.6860 0.4160
vt 0.7546 0.4133
vt 0.6276 0.3453
vt 0.5506 0.3483
vt 0.9338 0.3755
vt 0.9369 0.3957
vt 0.8451 0.3957
vt 0.8451 0.3795
vt 0.6292 0.3291
vt 0.5505 0.3322
vt 0.6265 0.5148
vt 0.5496 0.5108
vt 0.6847 0.4304
vt 0.7549 0.4277
vt 0.6545 0.4800
vt 0.7485 0.4791
vt 0.7486 0.4962
vt 0.6546 0.4971
vt 0.8502 0.3209
vt 0.9400 0.3205
vt 0.7701 0.4846
vt 0.8511 0.4841
vt 0.8512 0.5032
vt 0.7702 0.5037
vt 0.9394 0.5211
vt 0.8633 0.5218
vt 0.7702 0.5414
vt 0.8512 0.5409
vt 0.8513 0.5627
vt 0.7703 0.5632
vt 0.6547 0.5404
vt 0.7487 0.5394
vt 0.7488 0.5647
vt 0.6548 0.5656
vt 0.6288 0.5491
vt 0.6292 0.5692
vt 0.5484 0.5650
vt 0.5489 0.5449
vt 0.9404 0.4364
vt 0.9413 0.4602
vt 0.8451 0.4602
vt 0.8451 0.4364
vt 0.9389 0.4149
vt 0.8451 0.4149
vt 0.7487 0.5166
vt 0.6546 0.5175
vt 0.9395 0.5602
vt 0.8634 0.5610
vt 0.8633 0.5405
vt 0.9394 0.5397
vt 0.6836 0.4644
vt 0.6839 0.4466
vt 0.7552 0.4438
vt 0.7555 0.4616
vt 0.6279 0.5310
vt 0.5492 0.5269
vt 0.8512 0.5211
vt 0.7702 0.5216
vt 0.8501 0.2749
vt 0.9400 0.2744
vt 0.9400 0.2986
vt 0.8501 0.2991
vt 0.6310 0.2910
vt 0.6303 0.3110
vt 0.5504 0.3141
vt 0.5502 0.2941
vt 0.0293 0.6901
vt 0.1204 0.7554
vt 0.0754 0.7695
vt 0.0058 0.7114
vt 0.4712 0.6304
vt 0.4041 0.7114
vt 0.3616 0.7127
vt 0.4459 0.6175
vt 0.3404 0.7090
vt 0.4329 0.6101
vt 0.3071 0.6930
vt 0.4143 0.5981
vt 0.2935 0.6769
vt 0.4044 0.5895
vt 0.3960 0.5815
vt 0.2845 0.6649
vt 0.2822 0.6590
vt 0.3923 0.5779
vt 0.3795 0.5651
vt 0.2772 0.6387
vt 0.2788 0.6254
vt 0.3683 0.5541
vt 0.0674 0.3114
vt 0.3961 0.2532
vt 0.3511 0.2674
vt 0.1099 0.3100
vt 0.3299 0.2786
vt 0.1311 0.3138
vt 0.2967 0.3062
vt 0.1644 0.3297
vt 0.2842 0.3256
vt 0.1780 0.3459
vt 0.1870 0.3578
vt 0.2764 0.3408
vt 0.2746 0.3475
vt 0.1893 0.3638
vt 0.1943 0.3840
vt 0.2704 0.3696
vt 0.2721 0.3849
vt 0.1927 0.3973
vt 0.1417 0.7442
vt 0.1748 0.7166
vt 0.1873 0.6971
vt 0.1952 0.6819
vt 0.1969 0.6753
vt 0.2011 0.6531
vt 0.1994 0.6379
vt 0.0859 0.6212
vt 0.2003 0.6641
vt 0.0803 0.6291
vt 0.0727 0.6398
vt 0.1918 0.6899
vt 0.0688 0.6451
vt 0.0593 0.6574
vt 0.0414 0.6781
vt 0.0927 0.6114
vt 0.2782 0.6495
vt 0.2712 0.3586
vt 0.1933 0.3732
vt 0.3866 0.5722
vt 0.0769 0.6340
vt 0.2884 0.6716
vt 0.1831 0.3512
vt 0.2797 0.3328
vt 0.4003 0.5857
vt 0.1036 0.5958
vt 0.3856 0.4016
vt 0.3789 0.4113
vt 0.1032 0.4686
vt 0.0920 0.4576
vt 0.0755 0.4412
vt 0.0712 0.4370
vt 0.4028 0.3777
vt 0.3989 0.3830
vt 0.3947 0.3888
vt 0.0792 0.4448
vt 0.3912 0.3937
vt 0.0849 0.4505
vt 0.0386 0.4126
vt 0.0256 0.4053
vt 0.0572 0.4246
vt 0.0671 0.4332
vt 0.1036 0.5958
vt 0.1994 0.6379
vt 0.2788 0.6254
vt 0.3679 0.4269
vt 0.3679 0.4269
vt 0.2721 0.3849
vt 0.3683 0.5541
vt 0.1927 0.3973
vt 0.4122 0.3653
vt 0.4301 0.3446
vt 0.4422 0.3326
vt 0.4657 0.3113
vt 0.1032 0.4686
vt 0.0003 0.3923
vt 0.6227 0.7564
vt 0.6856 0.6805
vt 0.7051 0.7138
vt 0.6545 0.7828
vt 0.8352 0.7228
vt 0.8636 0.8339
vt 0.8646 0.6805
vt 0.6833 0.9094
vt 0.8095 0.9181
vt 0.8284 0.9504
vt 0.6547 0.9504
vt 0.9283 0.8092
vt 0.8586 0.8511
vt 0.8896 0.8767
vt 0.6557 0.8015
vt 0.5929 0.8255
vn -0.9993 0.0000 0.0375
vn 0.1863 0.0000 -0.9825
vn 0.9993 0.0000 0.0375
vn 0.0000 0.0000 1.0000
vn 0.0000 -1.0000 -0.0000
vn -0.0000 1.0000 0.0000
vn -0.1863 0.0000 -0.9825
vn 0.1265 0.0000 -0.9920
vn -0.0479 0.0000 -0.9989
vn 0.0478 0.0000 -0.9989
vn 0.0831 0.0000 -0.9965
vn -0.1265 0.0000 -0.9920
vn -0.0831 0.0000 -0.9965
vn -0.2341 0.0000 0.9722
vn 0.2341 0.0000 0.9722
vn 0.5138 -0.0000 0.8579
vn 0.7501 -0.0000 0.6614
vn 0.8588 -0.0000 0.5122
vn 0.9999 -0.0000 -0.0111
vn 0.8893 -0.0000 -0.4574
vn 0.0000 -0.9986 0.0529
vn 0.0000 -1.0000 -0.0017
vn 0.0000 -1.0000 -0.0027
vn -0.0000 -0.9999 -0.0153
vn 0.5092 -0.8606 -0.0085
vn -0.5065 -0.8622 -0.0088
vn 0.0000 0.9986 0.0529
vn 0.0000 1.0000 -0.0017
vn 0.0000 1.0000 -0.0027
vn 0.0000 0.9999 -0.0153
vn -0.5093 0.8606 -0.0054
vn 0.5065 0.8622 -0.0088
vn -0.9897 0.0000 -0.1428
vn -0.9346 0.0000 0.3556
vn -0.8588 -0.0000 0.5122
vn -0.7501 -0.0000 0.6614
vn -0.5138 -0.0000 0.8579
vn -0.9610 0.0000 -0.2767
vn 0.0000 0.9994 -0.0341
vn 0.0000 -0.9994 -0.0341
vn 0.9897 0.0000 -0.1428
vn -0.9999 0.0000 -0.0111
vn 0.0000 1.0000 -0.0014
vn 0.0000 -1.0000 -0.0014
vn 0.9857 -0.0000 0.1684
vn 0.9346 -0.0000 0.3556
vn 0.0000 -1.0000 -0.0018
vn 0.0000 1.0000 -0.0018
vn -0.9857 -0.0000 0.1684
vn -0.8893 0.0000 -0.4574
vn 0.0000 0.9999 -0.0157
vn 0.0000 -0.9999 -0.0157
vn 0.9610 0.0000 -0.2767
vn -1.0000 -0.0000 0.0000
vn -0.5784 0.5752 0.5784
vn 0.5795 0.5730 0.5795
vn 1.0000 -0.0000 0.0000
vn 0.5795 -0.5730 0.5795
vn -0.5795 -0.5730 0.5795
vn 0.0000 0.0000 -1.0000
usemtl brush
s 1
f 1/1/1 2/2/1 3/3/1 4/4/1
f 5/5/2 6/6/2 7/7/2 8/8/2
f 8/9/3 7/10/3 9/11/3 10/12/3
f 11/13/4 12/14/4 2/15/4 1/16/4
f 5/17/5 8/9/5 10/12/5 13/18/5
f 14/19/6 3/3/6 2/2/6 12/20/6
f 7/21/6 6/22/6 15/23/6 9/24/6
f 16/25/6 14/19/6 12/20/6 17/26/6
f 4/4/5 18/27/5 11/28/5 1/1/5
f 19/29/5 5/17/5 13/18/5 20/30/5
f 10/31/4 9/32/4 15/33/4 13/34/4
f 21/35/4 17/36/4 12/14/4 11/13/4
f 4/37/7 3/38/7 14/39/7 18/40/7
f 19/41/8 22/42/8 6/6/8 5/5/8
f 23/43/9 24/44/9 25/45/9 26/46/9
f 27/47/4 28/48/4 29/49/4 30/50/4
f 23/51/5 26/52/5 30/53/5 31/54/5
f 32/55/6 25/56/6 29/57/6 28/58/6
f 6/22/6 22/59/6 33/60/6 15/23/6
f 22/59/6 32/55/6 28/58/6 33/60/6
f 13/34/4 15/33/4 33/61/4 20/62/4
f 20/62/4 33/61/4 28/48/4 27/47/4
f 26/63/10 25/64/10 32/65/10 34/66/10
f 34/66/11 32/65/11 22/42/11 19/41/11
f 26/67/5 34/68/5 27/69/5 30/70/5
f 34/68/5 19/29/5 20/30/5 27/69/5
f 18/27/5 35/71/5 21/72/5 11/28/5
f 35/71/5 23/51/5 31/54/5 21/72/5
f 18/40/12 14/39/12 16/73/12 35/74/12
f 35/74/13 16/73/13 24/44/13 23/43/13
f 30/75/4 29/76/4 36/77/4 31/78/4
f 31/78/4 36/77/4 17/36/4 21/35/4
f 25/79/6 24/80/6 36/81/6 29/82/6
f 24/80/6 16/25/6 17/26/6 36/81/6
f 37/83/14 38/84/14 39/85/14 40/86/14
f 41/87/15 42/88/15 43/89/15 44/90/15
f 44/90/16 43/89/16 45/91/16 46/92/16
f 46/92/17 45/91/17 47/93/17 48/94/17
f 48/94/18 47/93/18 49/95/18 50/96/18
f 51/97/19 52/98/19 53/99/19 54/100/19
f 55/101/20 56/102/20 57/103/20 58/104/20
f 59/105/5 60/106/5 61/107/5 62/108/5
f 62/108/5 61/107/5 63/109/5 64/110/5
f 64/110/5 63/109/5 65/111/5 66/112/5
f 66/112/21 65/111/21 67/113/21 68/114/21
f 69/115/22 70/116/22 71/117/23 72/118/23
f 73/119/24 74/120/24 75/121/25 76/122/26
f 42/88/6 39/85/6 38/84/6 43/89/6
f 43/89/6 38/84/6 77/123/6 45/91/6
f 45/91/6 77/123/6 78/124/6 47/93/6
f 47/93/27 78/124/27 79/125/27 49/95/27
f 52/98/28 80/126/28 81/127/29 53/99/29
f 56/102/30 82/128/30 83/129/31 57/103/32
f 85/130/33 86/131/33 81/127/33 87/132/33
f 88/133/34 89/134/34 79/125/34 90/135/34
f 90/135/35 79/125/35 78/124/35 91/136/35
f 91/136/36 78/124/36 77/123/36 92/137/36
f 92/137/37 77/123/37 38/84/37 37/83/37
f 94/138/38 82/128/38 86/131/38 85/130/38
f 53/99/39 81/127/39 86/131/39 95/139/39
f 72/118/40 71/117/40 96/140/40 97/141/40
f 54/100/41 53/99/41 95/139/41 98/142/41
f 87/132/42 81/127/42 80/126/42 99/143/42
f 100/144/43 89/134/43 80/126/28 52/98/28
f 101/145/44 102/146/44 70/116/22 69/115/22
f 103/147/45 100/144/45 52/98/45 51/97/45
f 50/96/46 49/95/46 100/144/46 103/147/46
f 68/114/47 67/113/47 102/146/44 101/145/44
f 49/95/48 79/125/48 89/134/43 100/144/43
f 99/143/49 80/126/49 89/134/49 88/133/49
f 84/148/50 83/129/50 82/128/50 94/138/50
f 95/139/51 86/131/51 82/128/30 56/102/30
f 97/141/52 96/140/52 74/120/24 73/119/24
f 98/142/53 95/139/53 56/102/53 55/101/53
f 96/140/53 98/149/53 55/150/53 74/120/53
f 76/122/50 84/151/50 94/152/50 73/119/50
f 69/115/49 99/153/49 88/154/49 101/145/49
f 67/113/46 50/155/46 103/156/46 102/146/46
f 102/146/45 103/156/45 51/157/45 70/116/45
f 72/118/42 87/158/42 99/153/42 69/115/42
f 71/117/41 54/159/41 98/149/41 96/140/41
f 73/119/38 94/152/38 85/160/38 97/141/38
f 64/110/37 92/161/37 37/162/37 62/108/37
f 66/112/36 91/163/36 92/161/36 64/110/36
f 68/114/35 90/164/35 91/163/35 66/112/35
f 101/145/34 88/154/34 90/164/34 68/114/34
f 97/141/33 85/160/33 87/158/33 72/118/33
f 83/129/31 84/148/54 105/165/54 93/166/55
f 57/103/32 83/129/31 93/166/55 104/167/56
f 75/121/25 58/168/57 108/169/57 107/170/58
f 58/104/57 57/103/32 104/167/56 108/171/57
f 76/122/26 75/121/25 107/170/58 106/172/59
f 74/120/20 55/150/20 58/168/20 75/121/20
f 70/116/19 51/157/19 54/159/19 71/117/19
f 65/111/18 48/173/18 50/155/18 67/113/18
f 63/109/17 46/174/17 48/173/17 65/111/17
f 61/107/16 44/175/16 46/174/16 63/109/16
f 60/106/15 41/176/15 44/175/15 61/107/15
f 107/170/58 108/171/4 104/167/56 93/166/55 105/177/4 106/172/59
f 84/151/54 76/122/26 106/172/59 105/177/54
f 62/108/14 37/162/14 40/178/14 59/105/14
f 40/179/54 39/180/54 109/181/54 110/182/54
f 110/182/60 109/181/60 111/183/60 112/184/60
f 111/183/6 109/181/6 39/180/6 42/185/6
f 113/186/5 114/187/5 60/188/5 59/189/5
f 112/184/57 111/183/57 42/185/57 41/190/57
f 114/187/57 112/191/57 41/192/57 60/188/57
f 113/186/60 110/193/60 112/191/60 114/187/60
f 59/189/54 40/194/54 110/193/54 113/186/54
