# Blender v2.78 (sub 0) OBJ File: 'trowel.blend'
# www.blender.org
mtllib trowel.mtl
o Cylinder
v 1.431810 0.000000 -0.024699
v 3.377646 0.661726 -0.100000
v 1.431810 -0.004819 -0.024225
v 3.377646 0.642217 -0.098079
v 1.431810 -0.009452 -0.022819
v 3.377646 0.623457 -0.092388
v 1.431810 -0.013722 -0.020537
v 3.377646 0.606169 -0.083147
v 1.431810 -0.017465 -0.017465
v 3.377646 0.591015 -0.070711
v 1.431810 -0.020537 -0.013722
v 3.377646 0.578579 -0.055557
v 1.431810 -0.022819 -0.009452
v 3.377646 0.569338 -0.038268
v 1.431810 -0.024225 -0.004819
v 3.377646 0.563647 -0.019509
v 1.431810 -0.024699 -0.000000
v 3.377646 0.561725 -0.000000
v 1.431810 -0.024225 0.004819
v 3.377646 0.563647 0.019509
v 1.431810 -0.022819 0.009452
v 3.377646 0.569338 0.038268
v 1.431810 -0.020537 0.013722
v 3.377646 0.578579 0.055557
v 1.431810 -0.017465 0.017465
v 3.377646 0.591015 0.070711
v 1.431810 -0.013722 0.020537
v 3.377646 0.606169 0.083147
v 1.431810 -0.009452 0.022819
v 3.377646 0.623457 0.092388
v 1.431810 -0.004819 0.024225
v 3.377646 0.642217 0.098079
v 1.431810 0.000000 0.024699
v 3.377646 0.661726 0.100000
v 1.431810 0.004819 0.024225
v 3.377646 0.681235 0.098079
v 1.431810 0.009452 0.022819
v 3.377646 0.699994 0.092388
v 1.431810 0.013722 0.020537
v 3.377646 0.717283 0.083147
v 1.431810 0.017465 0.017465
v 3.377646 0.732436 0.070711
v 1.431810 0.020537 0.013722
v 3.377646 0.744873 0.055557
v 1.431810 0.022819 0.009452
v 3.377646 0.754114 0.038268
v 1.431810 0.024225 0.004819
v 3.377646 0.759804 0.019509
v 1.431810 0.024699 -0.000000
v 3.377646 0.761726 -0.000000
v 1.431810 0.024225 -0.004819
v 3.377646 0.759804 -0.019509
v 1.431810 0.022819 -0.009452
v 3.377646 0.754113 -0.038268
v 1.431810 0.020537 -0.013722
v 3.377646 0.744872 -0.055557
v 1.431810 0.017465 -0.017465
v 3.377646 0.732436 -0.070711
v 1.431810 0.013722 -0.020537
v 3.377646 0.717282 -0.083147
v 1.431810 0.009452 -0.022819
v 3.377646 0.699994 -0.092388
v 1.431810 0.004819 -0.024225
v 3.377646 0.681234 -0.098079
v 1.758197 0.000000 -0.027942
v 1.758197 -0.005451 -0.027405
v 1.758197 -0.010693 -0.025815
v 1.758197 -0.015524 -0.023233
v 1.758197 -0.019758 -0.019758
v 1.758197 -0.023233 -0.015524
v 1.758197 -0.025815 -0.010693
v 1.758197 -0.027405 -0.005451
v 1.758197 -0.027942 -0.000000
v 1.758197 -0.027405 0.005451
v 1.758197 -0.025815 0.010693
v 1.758197 -0.023233 0.015524
v 1.758197 -0.019758 0.019758
v 1.758197 -0.015524 0.023233
v 1.758197 -0.010693 0.025815
v 1.758197 -0.005451 0.027405
v 1.758197 0.000000 0.027942
v 1.758197 0.005451 0.027405
v 1.758197 0.010693 0.025815
v 1.758197 0.015524 0.023233
v 1.758197 0.019758 0.019758
v 1.758197 0.023233 0.015524
v 1.758197 0.025815 0.010693
v 1.758197 0.027405 0.005451
v 1.758197 0.027942 -0.000000
v 1.758197 0.027405 -0.005451
v 1.758197 0.025815 -0.010693
v 1.758197 0.023233 -0.015524
v 1.758197 0.019758 -0.019758
v 1.758197 0.015524 -0.023233
v 1.758197 0.010693 -0.025815
v 1.758197 0.005451 -0.027405
v 2.092874 0.408534 -0.042201
v 2.092874 0.400300 -0.041390
v 2.092874 0.392384 -0.038989
v 2.092874 0.385088 -0.035089
v 2.092874 0.378693 -0.029841
v 2.092874 0.373444 -0.023446
v 2.092874 0.369545 -0.016150
v 2.092874 0.367143 -0.008233
v 2.092874 0.366332 -0.000000
v 2.092874 0.367143 0.008233
v 2.092874 0.369545 0.016150
v 2.092874 0.373444 0.023446
v 2.092874 0.378693 0.029841
v 2.092874 0.385088 0.035089
v 2.092874 0.392384 0.038989
v 2.092874 0.400300 0.041390
v 2.092874 0.408534 0.042201
v 2.092874 0.416767 0.041390
v 2.092874 0.424683 0.038989
v 2.092874 0.431979 0.035089
v 2.092874 0.438374 0.029841
v 2.092874 0.443623 0.023446
v 2.092874 0.447522 0.016150
v 2.092874 0.449924 0.008233
v 2.092874 0.450735 -0.000000
v 2.092874 0.449924 -0.008233
v 2.092874 0.447522 -0.016150
v 2.092874 0.443622 -0.023446
v 2.092874 0.438374 -0.029841
v 2.092874 0.431979 -0.035089
v 2.092874 0.424683 -0.038989
v 2.092874 0.416766 -0.041390
v 2.098631 0.409982 -0.050933
v 2.098631 0.400045 -0.049955
v 2.098631 0.390491 -0.047056
v 2.098631 0.381685 -0.042350
v 2.098631 0.373967 -0.036015
v 2.098631 0.367632 -0.028297
v 2.098631 0.362926 -0.019491
v 2.098631 0.360027 -0.009937
v 2.098631 0.359049 -0.000000
v 2.098631 0.360027 0.009937
v 2.098631 0.362926 0.019491
v 2.098631 0.367632 0.028297
v 2.098631 0.373967 0.036015
v 2.098631 0.381685 0.042350
v 2.098631 0.390491 0.047056
v 2.098631 0.400045 0.049955
v 2.098631 0.409982 0.050933
v 2.098631 0.419919 0.049955
v 2.098631 0.429473 0.047056
v 2.098631 0.438279 0.042350
v 2.098631 0.445997 0.036015
v 2.098631 0.452331 0.028297
v 2.098631 0.457038 0.019491
v 2.098631 0.459937 0.009937
v 2.098631 0.460915 -0.000000
v 2.098631 0.459937 -0.009937
v 2.098631 0.457038 -0.019491
v 2.098631 0.452331 -0.028297
v 2.098631 0.445997 -0.036015
v 2.098631 0.438279 -0.042350
v 2.098631 0.429473 -0.047056
v 2.098631 0.419918 -0.049955
vn -0.0189 -0.0980 -0.9950
vn 0.0190 -0.2902 -0.9568
vn 0.0545 -0.4707 -0.8806
vn 0.0864 -0.6320 -0.7701
vn 0.1132 -0.7680 -0.6303
vn 0.1342 -0.8739 -0.4671
vn 0.1485 -0.9463 -0.2871
vn 0.1558 -0.9830 -0.0968
vn 0.1558 -0.9830 0.0968
vn 0.1485 -0.9463 0.2871
vn 0.1342 -0.8739 0.4671
vn 0.1132 -0.7680 0.6303
vn 0.0864 -0.6320 0.7701
vn 0.0545 -0.4707 0.8806
vn 0.0190 -0.2902 0.9568
vn -0.0189 -0.0980 0.9950
vn -0.0574 0.0979 0.9935
vn -0.0949 0.2890 0.9526
vn -0.1299 0.4674 0.8745
vn -0.1609 0.6261 0.7629
vn -0.1870 0.7594 0.6232
vn -0.2072 0.8628 0.4612
vn -0.2209 0.9333 0.2831
vn -0.2279 0.9690 0.0954
vn -0.2279 0.9690 -0.0954
vn -0.2209 0.9333 -0.2831
vn -0.2072 0.8628 -0.4612
vn -0.1870 0.7594 -0.6232
vn -0.1609 0.6261 -0.7629
vn -0.1299 0.4674 -0.8745
vn 1.0000 -0.0000 0.0000
vn -0.0949 0.2890 -0.9526
vn -0.0574 0.0979 -0.9935
vn -1.0000 -0.0000 0.0000
vn -0.8377 0.0535 -0.5434
vn -0.8454 0.1551 -0.5112
vn -0.8521 0.2467 -0.4616
vn -0.8578 0.3261 -0.3973
vn -0.8624 0.3913 -0.3211
vn -0.8659 0.4411 -0.2358
vn -0.8683 0.4747 -0.1440
vn -0.8694 0.4917 -0.0484
vn -0.8694 0.4917 0.0484
vn -0.8683 0.4747 0.1440
vn -0.8659 0.4411 0.2358
vn -0.8624 0.3913 0.3211
vn -0.8578 0.3261 0.3973
vn -0.8521 0.2467 0.4616
vn -0.8454 0.1551 0.5112
vn -0.8377 0.0535 0.5434
vn -0.8294 -0.0548 0.5559
vn -0.8207 -0.1659 0.5467
vn -0.8119 -0.2752 0.5148
vn -0.8035 -0.3776 0.4601
vn -0.7960 -0.4679 0.3840
vn -0.7898 -0.5410 0.2891
vn -0.7854 -0.5924 0.1797
vn -0.7831 -0.6189 0.0610
vn -0.7831 -0.6190 -0.0610
vn -0.7854 -0.5924 -0.1797
vn -0.7898 -0.5410 -0.2891
vn -0.7960 -0.4679 -0.3840
vn -0.8035 -0.3776 -0.4601
vn -0.8119 -0.2752 -0.5148
vn -0.8207 -0.1658 -0.5468
vn -0.8294 -0.0547 -0.5559
vn -0.0099 0.0980 -0.9951
vn -0.0099 0.2903 -0.9569
vn -0.0099 0.4714 -0.8819
vn -0.0099 0.6344 -0.7730
vn -0.0099 0.7730 -0.6344
vn -0.0099 0.8819 -0.4714
vn -0.0099 0.9569 -0.2903
vn -0.0099 0.9951 -0.0980
vn -0.0099 0.9951 0.0980
vn -0.0099 0.9569 0.2903
vn -0.0099 0.8819 0.4714
vn -0.0099 0.7730 0.6344
vn -0.0099 0.6344 0.7730
vn -0.0099 0.4714 0.8819
vn -0.0099 0.2903 0.9569
vn -0.0099 0.0980 0.9951
vn -0.0099 -0.0980 0.9951
vn -0.0099 -0.2903 0.9569
vn -0.0099 -0.4714 0.8819
vn -0.0099 -0.6344 0.7730
vn -0.0099 -0.7730 0.6344
vn -0.0099 -0.8819 0.4714
vn -0.0099 -0.9569 0.2903
vn -0.0099 -0.9951 0.0980
vn -0.0099 -0.9951 -0.0980
vn -0.0099 -0.9569 -0.2903
vn -0.0099 -0.8819 -0.4714
vn -0.0099 -0.7730 -0.6344
vn -0.0099 -0.6344 -0.7730
vn -0.0099 -0.4714 -0.8819
vn -0.0099 -0.2903 -0.9569
vn -0.0099 -0.0980 -0.9951
vn -0.1600 0.0968 -0.9824
vn -0.3688 0.2698 -0.8895
vn -0.5256 0.4010 -0.7503
vn -0.6326 0.4913 -0.5987
vn -0.7021 0.5504 -0.4517
vn -0.7456 0.5877 -0.3141
vn -0.7710 0.6095 -0.1849
vn -0.7826 0.6195 -0.0610
vn -0.7826 0.6195 0.0610
vn -0.7710 0.6095 0.1849
vn -0.7456 0.5877 0.3141
vn -0.7021 0.5504 0.4517
vn -0.6326 0.4913 0.5987
vn -0.5256 0.4010 0.7503
vn -0.3688 0.2698 0.8895
vn -0.1600 0.0968 0.9824
vn 0.0770 -0.0977 0.9922
vn 0.2978 -0.2771 0.9135
vn 0.4704 -0.4160 0.7783
vn 0.5907 -0.5119 0.6238
vn 0.6695 -0.5742 0.4713
vn 0.7189 -0.6131 0.3277
vn 0.7476 -0.6355 0.1928
vn 0.7608 -0.6458 0.0636
vn 0.7608 -0.6458 -0.0636
vn 0.7476 -0.6355 -0.1928
vn 0.7189 -0.6131 -0.3277
vn 0.6695 -0.5742 -0.4713
vn 0.5907 -0.5119 -0.6238
vn 0.4704 -0.4160 -0.7783
vn 0.2978 -0.2771 -0.9135
vn 0.0770 -0.0977 -0.9922
usemtl Material.001
s off
f 129//1 2//1 4//1 130//1
f 130//2 4//2 6//2 131//2
f 131//3 6//3 8//3 132//3
f 132//4 8//4 10//4 133//4
f 133//5 10//5 12//5 134//5
f 134//6 12//6 14//6 135//6
f 135//7 14//7 16//7 136//7
f 136//8 16//8 18//8 137//8
f 137//9 18//9 20//9 138//9
f 138//10 20//10 22//10 139//10
f 139//11 22//11 24//11 140//11
f 140//12 24//12 26//12 141//12
f 141//13 26//13 28//13 142//13
f 142//14 28//14 30//14 143//14
f 143//15 30//15 32//15 144//15
f 144//16 32//16 34//16 145//16
f 145//17 34//17 36//17 146//17
f 146//18 36//18 38//18 147//18
f 147//19 38//19 40//19 148//19
f 148//20 40//20 42//20 149//20
f 149//21 42//21 44//21 150//21
f 150//22 44//22 46//22 151//22
f 151//23 46//23 48//23 152//23
f 152//24 48//24 50//24 153//24
f 153//25 50//25 52//25 154//25
f 154//26 52//26 54//26 155//26
f 155//27 54//27 56//27 156//27
f 156//28 56//28 58//28 157//28
f 157//29 58//29 60//29 158//29
f 158//30 60//30 62//30 159//30
f 4//31 2//31 64//31 62//31 60//31 58//31 56//31 54//31 52//31 50//31 48//31 46//31 44//31 42//31 40//31 38//31 36//31 34//31 32//31 30//31 28//31 26//31 24//31 22//31 20//31 18//31 16//31 14//31 12//31 10//31 8//31 6//31
f 159//32 62//32 64//32 160//32
f 160//33 64//33 2//33 129//33
f 1//34 3//34 5//34 7//34 9//34 11//34 13//34 15//34 17//34 19//34 21//34 23//34 25//34 27//34 29//34 31//34 33//34 35//34 37//34 39//34 41//34 43//34 45//34 47//34 49//34 51//34 53//34 55//34 57//34 59//34 61//34 63//34
f 128//35 160//35 129//35 97//35
f 127//36 159//36 160//36 128//36
f 126//37 158//37 159//37 127//37
f 125//38 157//38 158//38 126//38
f 124//39 156//39 157//39 125//39
f 123//40 155//40 156//40 124//40
f 122//41 154//41 155//41 123//41
f 121//42 153//42 154//42 122//42
f 120//43 152//43 153//43 121//43
f 119//44 151//44 152//44 120//44
f 118//45 150//45 151//45 119//45
f 117//46 149//46 150//46 118//46
f 116//47 148//47 149//47 117//47
f 115//48 147//48 148//48 116//48
f 114//49 146//49 147//49 115//49
f 113//50 145//50 146//50 114//50
f 112//51 144//51 145//51 113//51
f 111//52 143//52 144//52 112//52
f 110//53 142//53 143//53 111//53
f 109//54 141//54 142//54 110//54
f 108//55 140//55 141//55 109//55
f 107//56 139//56 140//56 108//56
f 106//57 138//57 139//57 107//57
f 105//58 137//58 138//58 106//58
f 104//59 136//59 137//59 105//59
f 103//60 135//60 136//60 104//60
f 102//61 134//61 135//61 103//61
f 101//62 133//62 134//62 102//62
f 100//63 132//63 133//63 101//63
f 99//64 131//64 132//64 100//64
f 98//65 130//65 131//65 99//65
f 97//66 129//66 130//66 98//66
usemtl trowel
f 63//67 96//67 65//67 1//67
f 61//68 95//68 96//68 63//68
f 59//69 94//69 95//69 61//69
f 57//70 93//70 94//70 59//70
f 55//71 92//71 93//71 57//71
f 53//72 91//72 92//72 55//72
f 51//73 90//73 91//73 53//73
f 49//74 89//74 90//74 51//74
f 47//75 88//75 89//75 49//75
f 45//76 87//76 88//76 47//76
f 43//77 86//77 87//77 45//77
f 41//78 85//78 86//78 43//78
f 39//79 84//79 85//79 41//79
f 37//80 83//80 84//80 39//80
f 35//81 82//81 83//81 37//81
f 33//82 81//82 82//82 35//82
f 31//83 80//83 81//83 33//83
f 29//84 79//84 80//84 31//84
f 27//85 78//85 79//85 29//85
f 25//86 77//86 78//86 27//86
f 23//87 76//87 77//87 25//87
f 21//88 75//88 76//88 23//88
f 19//89 74//89 75//89 21//89
f 17//90 73//90 74//90 19//90
f 15//91 72//91 73//91 17//91
f 13//92 71//92 72//92 15//92
f 11//93 70//93 71//93 13//93
f 9//94 69//94 70//94 11//94
f 7//95 68//95 69//95 9//95
f 5//96 67//96 68//96 7//96
f 3//97 66//97 67//97 5//97
f 1//98 65//98 66//98 3//98
f 96//99 128//99 97//99 65//99
f 95//100 127//100 128//100 96//100
f 94//101 126//101 127//101 95//101
f 93//102 125//102 126//102 94//102
f 92//103 124//103 125//103 93//103
f 91//104 123//104 124//104 92//104
f 90//105 122//105 123//105 91//105
f 89//106 121//106 122//106 90//106
f 88//107 120//107 121//107 89//107
f 87//108 119//108 120//108 88//108
f 86//109 118//109 119//109 87//109
f 85//110 117//110 118//110 86//110
f 84//111 116//111 117//111 85//111
f 83//112 115//112 116//112 84//112
f 82//113 114//113 115//113 83//113
f 81//114 113//114 114//114 82//114
f 80//115 112//115 113//115 81//115
f 79//116 111//116 112//116 80//116
f 78//117 110//117 111//117 79//117
f 77//118 109//118 110//118 78//118
f 76//119 108//119 109//119 77//119
f 75//120 107//120 108//120 76//120
f 74//121 106//121 107//121 75//121
f 73//122 105//122 106//122 74//122
f 72//123 104//123 105//123 73//123
f 71//124 103//124 104//124 72//124
f 70//125 102//125 103//125 71//125
f 69//126 101//126 102//126 70//126
f 68//127 100//127 101//127 69//127
f 67//128 99//128 100//128 68//128
f 66//129 98//129 99//129 67//129
f 65//130 97//130 98//130 66//130
o Cube
v -1.127652 -0.013731 -0.005829
v -1.127652 0.021968 -0.005829
v 1.127652 -0.050000 0.900000
v 1.127652 0.050000 0.900000
v 1.127652 -0.050000 -0.900000
v 1.127652 0.050000 -0.900000
v 1.127652 0.000000 -0.900000
v 1.472348 -0.050000 0.000000
v 1.472348 0.050000 0.000000
v 1.127652 0.000000 0.900000
v 1.472348 0.000000 0.000000
vt 0.1490 0.6138
vt 0.0001 0.8083
vt 0.0001 0.0001
vt 0.1441 0.4077
vt 0.1969 0.5072
vt 0.2827 0.4306
vt 0.5277 0.1774
vt 0.6123 0.6227
vt 0.3293 0.5602
vt 0.2413 0.5320
vt 0.2242 0.5094
vt 0.7843 0.6066
vt 0.8532 0.0815
vt 0.9875 0.7571
vt 0.8906 0.7701
vn -0.3686 0.0000 -0.9296
vn 0.9339 0.0000 0.3577
vn -0.3727 0.0000 0.9279
vn -0.0139 -0.9999 0.0000
vn -0.0108 0.9999 0.0000
vn 0.9339 0.0000 -0.3577
usemtl trowel_trowel-texture.png
s off
f 161/1/131 162/2/131 166/3/131 167/4/131 165/5/131
f 171/6/132 169/7/132 164/8/132 170/9/132
f 163/10/133 170/9/133 164/8/133 162/2/133 161/1/133
f 161/1/134 165/5/134 168/11/134 163/10/134
f 166/12/135 162/13/135 164/14/135 169/15/135
f 168/11/132 171/6/132 170/9/132 163/10/132
f 165/5/136 167/4/136 171/6/136 168/11/136
f 167/4/136 166/3/136 169/7/136 171/6/136
